<svg width="638" height="377" fill="none" xmlns="http://www.w3.org/2000/svg"> <path d="M59.285-14.282C51.72.018 44.86 14.78 38.625 29.906 9.704 100.15-19.855 201.741 18.257 273.668c31.425 59.323 103.565 82.398 167.014 76.652 56.144-5.088 107.704-13.675 163.978-4.663 55.081 8.831 110.706 24.244 166.875 15.92 88.454-13.097 149.21-104.495 160.249-187.718 17.413-131.171-65.236-280.837-180.313-342.46-86.708-46.438-195.193-43.687-283.098-1.02C143.725-136.014 94.156-80.194 59.299-14.294l-.014.012z" fill="#008484"/><path d="M60.538 5.06c-7.244 14.516-13.795 29.493-19.694 44.81-27.375 71.143-54.635 173.735-14.72 244.995 32.926 58.772 105.816 80.234 169.332 72.98 56.207-6.411 107.718-16.253 164.367-8.521 55.454 7.563 111.609 21.724 167.751 12.055 88.408-15.208 147.21-108.31 156.339-192.048 14.383-131.979-72.03-280.168-188.891-339.279-88.076-44.542-196.823-39.237-283.994 5.621C142.373-118.991 93.952-61.848 60.536 5.074l.002-.013z" stroke="#9FC63B" stroke-width="3.05" stroke-miterlimit="18.54"/><defs><clipPath id="clip0_561_1444"><path fill="#fff" d="M0 0h638v377H0z"/></clipPath><clipPath id="clip1_561_1444"><path fill="#fff" transform="rotate(-174.447 341.448 194.364)" d="M0 0h682.689v593.586H0z"/></clipPath></defs></svg>
