<svg xmlns="http://www.w3.org/2000/svg" width="14" height="14" fill="none"><path fill="#6C6C6B" fill-rule="evenodd" d="M5.74 9.516c2.018 0 3.653-1.657 3.653-3.7 0-2.045-1.635-3.701-3.653-3.701-2.017 0-3.653 1.656-3.653 3.7 0 2.044 1.636 3.7 3.653 3.7Zm0 2.114c3.17 0 5.74-2.603 5.74-5.815C11.48 2.604 8.91 0 5.74 0 2.57 0 0 2.604 0 5.815c0 3.212 2.57 5.815 5.74 5.815Z" clip-rule="evenodd"/><path fill="#6C6C6B" fill-rule="evenodd" d="M8.943 8.877a1.034 1.034 0 0 1 1.476 0l2.843 2.88a1.067 1.067 0 0 1 0 1.495 1.034 1.034 0 0 1-1.476 0l-2.843-2.88a1.067 1.067 0 0 1 0-1.495Z" clip-rule="evenodd"/></svg>