<svg width="310" height="122" fill="none" xmlns="http://www.w3.org/2000/svg"><g clip-path="url(#clip0_520_1405)"><g clip-path="url(#clip1_520_1405)"><path d="M381.15 297.2c6.061-10.755 11.593-21.879 16.657-33.292 23.488-53 48.099-129.904 20.483-185.55-22.77-45.894-77.337-64.961-125.858-61.864-42.935 2.742-82.444 8.247-125.192.23C125.399 8.87 83.276-4.017 40.256 1.194-27.489 9.39-75.694 77.883-85.804 141.15c-15.945 99.715 44.07 215.57 130.611 264.916 65.206 37.186 148.024 37.288 215.952 6.522 53.502-24.234 92.451-65.813 120.379-115.38l.012-.009z" fill="#008484"/></g></g><defs><clipPath id="clip0_520_1405"><path fill="#fff" d="M0 0h310v122H0z"/></clipPath><clipPath id="clip1_520_1405"><path fill="#fff" transform="rotate(7.076 344.993 -591.198)" d="M0 0h521v453H0z"/></clipPath></defs></svg>
