<svg xmlns="http://www.w3.org/2000/svg" width="38" height="95" fill="none"><path fill="#6FB62C" d="M0 0h38v95H0z"/><path d="M7.112 17.25a7.912 7.912 0 1 0 4.27-15.235 7.912 7.912 0 0 0-4.27 15.236Z" fill="url(#a)" style="mix-blend-mode:multiply" opacity=".6"/><path d="M9.214 15.12a5.739 5.739 0 1 0 3.097-11.052A5.739 5.739 0 0 0 9.214 15.12Z" fill="#6FB62C"/><path style="mix-blend-mode:color-dodge" opacity=".7" d="M9.214 15.12a5.739 5.739 0 1 0 3.097-11.052A5.739 5.739 0 0 0 9.214 15.12Z" fill="url(#b)"/><path d="M7.048 36.267a7.911 7.911 0 1 0 4.27-15.236 7.911 7.911 0 0 0-4.27 15.236Z" fill="url(#c)" style="mix-blend-mode:multiply" opacity=".6"/><path d="M10.736 34.466c-3.176-.022-5.753-2.596-5.731-5.772.022-3.176 2.596-5.753 5.772-5.73 3.176.021 5.753 2.595 5.73 5.771-.021 3.176-2.595 5.753-5.771 5.731Z" fill="#6FB62C"/><path style="mix-blend-mode:color-dodge" opacity=".7" d="M10.736 34.466c-3.176-.022-5.753-2.596-5.731-5.772.022-3.176 2.596-5.753 5.772-5.73 3.176.021 5.753 2.595 5.73 5.771-.021 3.176-2.595 5.753-5.771 5.731Z" fill="url(#d)"/><path d="M25.683 17.25a7.912 7.912 0 1 0 4.27-15.235 7.912 7.912 0 0 0-4.27 15.236Z" fill="url(#e)" style="mix-blend-mode:multiply" opacity=".6"/><path d="M27.784 15.12a5.739 5.739 0 1 0 3.097-11.052 5.739 5.739 0 0 0-3.097 11.052Z" fill="#6FB62C"/><path style="mix-blend-mode:color-dodge" opacity=".7" d="M27.784 15.12a5.739 5.739 0 1 0 3.097-11.052 5.739 5.739 0 0 0-3.097 11.052Z" fill="url(#f)"/><path d="M25.618 36.267a7.912 7.912 0 1 0 4.27-15.236 7.912 7.912 0 0 0-4.27 15.236Z" fill="url(#g)" style="mix-blend-mode:multiply" opacity=".6"/><path d="M29.306 34.466c-3.176-.022-5.753-2.596-5.73-5.772.021-3.176 2.595-5.753 5.771-5.73 3.176.021 5.753 2.595 5.731 5.771-.022 3.176-2.596 5.753-5.772 5.731Z" fill="#6FB62C"/><path style="mix-blend-mode:color-dodge" opacity=".7" d="M29.306 34.466c-3.176-.022-5.753-2.596-5.73-5.772.021-3.176 2.595-5.753 5.771-5.73 3.176.021 5.753 2.595 5.731 5.771-.022 3.176-2.596 5.753-5.772 5.731Z" fill="url(#h)"/><path d="M7.112 55.37a7.912 7.912 0 1 0 4.27-15.235 7.912 7.912 0 0 0-4.27 15.236Z" fill="url(#i)" style="mix-blend-mode:multiply" opacity=".6"/><path d="M9.214 53.24a5.739 5.739 0 1 0 3.097-11.052A5.739 5.739 0 0 0 9.214 53.24Z" fill="#6FB62C"/><path style="mix-blend-mode:color-dodge" opacity=".7" d="M9.214 53.24a5.739 5.739 0 1 0 3.097-11.052A5.739 5.739 0 0 0 9.214 53.24Z" fill="url(#j)"/><path d="M7.048 74.388a7.911 7.911 0 1 0 4.27-15.236 7.911 7.911 0 0 0-4.27 15.236Z" fill="url(#k)" style="mix-blend-mode:multiply" opacity=".6"/><path d="M10.736 72.586c-3.176-.022-5.753-2.596-5.731-5.772.022-3.176 2.596-5.753 5.772-5.73 3.176.021 5.753 2.595 5.73 5.771-.021 3.176-2.595 5.753-5.771 5.731Z" fill="#6FB62C"/><path style="mix-blend-mode:color-dodge" opacity=".7" d="M10.736 72.586c-3.176-.022-5.753-2.596-5.731-5.772.022-3.176 2.596-5.753 5.772-5.73 3.176.021 5.753 2.595 5.73 5.771-.021 3.176-2.595 5.753-5.771 5.731Z" fill="url(#l)"/><path d="M25.683 55.37a7.912 7.912 0 1 0 4.27-15.235 7.912 7.912 0 0 0-4.27 15.236Z" fill="url(#m)" style="mix-blend-mode:multiply" opacity=".6"/><path d="M27.784 53.24a5.739 5.739 0 1 0 3.097-11.052 5.739 5.739 0 0 0-3.097 11.052Z" fill="#6FB62C"/><path style="mix-blend-mode:color-dodge" opacity=".7" d="M27.784 53.24a5.739 5.739 0 1 0 3.097-11.052 5.739 5.739 0 0 0-3.097 11.052Z" fill="url(#n)"/><path d="M7.112 92.37a7.912 7.912 0 1 0 4.27-15.235 7.912 7.912 0 0 0-4.27 15.236Z" fill="url(#o)" style="mix-blend-mode:multiply" opacity=".6"/><path d="M9.214 90.24a5.739 5.739 0 1 0 3.097-11.052A5.739 5.739 0 0 0 9.214 90.24Z" fill="#6FB62C"/><path style="mix-blend-mode:color-dodge" opacity=".7" d="M9.214 90.24a5.739 5.739 0 1 0 3.097-11.052A5.739 5.739 0 0 0 9.214 90.24Z" fill="url(#p)"/><path d="M25.683 92.37a7.912 7.912 0 1 0 4.27-15.235 7.912 7.912 0 0 0-4.27 15.236Z" fill="url(#q)" style="mix-blend-mode:multiply" opacity=".6"/><path d="M27.784 90.24a5.739 5.739 0 1 0 3.097-11.052 5.739 5.739 0 0 0-3.097 11.052Z" fill="#6FB62C"/><path style="mix-blend-mode:color-dodge" opacity=".7" d="M27.784 90.24a5.739 5.739 0 1 0 3.097-11.052 5.739 5.739 0 0 0-3.097 11.052Z" fill="url(#r)"/><path d="M25.618 74.388a7.912 7.912 0 1 0 4.27-15.237 7.912 7.912 0 0 0-4.27 15.236Z" fill="url(#s)" style="mix-blend-mode:multiply" opacity=".6"/><path d="M29.306 72.586c-3.176-.022-5.753-2.596-5.73-5.772.021-3.176 2.595-5.753 5.771-5.73 3.176.021 5.753 2.595 5.731 5.771-.022 3.176-2.596 5.753-5.772 5.731Z" fill="#6FB62C"/><path style="mix-blend-mode:color-dodge" opacity=".7" d="M29.306 72.586c-3.176-.022-5.753-2.596-5.73-5.772.021-3.176 2.595-5.753 5.771-5.73 3.176.021 5.753 2.595 5.731 5.771-.022 3.176-2.596 5.753-5.772 5.731Z" fill="url(#t)"/><defs><radialGradient id="a" cx="0" cy="0" r="1" gradientUnits="userSpaceOnUse" gradientTransform="matrix(-.00742 7.91155 -7.91154 -.00742 9.042 10.252)"><stop offset=".7" stop-color="#61B675"/><stop offset=".8" stop-color="#99D0A6"/><stop offset=".9" stop-color="#E4F2E8"/><stop offset="1" stop-color="#fff"/></radialGradient><radialGradient id="b" cx="0" cy="0" r="1" gradientUnits="userSpaceOnUse" gradientTransform="matrix(-.00742 7.91155 -7.91154 -.00742 9.99 10.197)"><stop offset=".6" stop-color="#0B0B0B"/><stop offset=".7" stop-color="#262626"/><stop offset=".8" stop-color="#535353"/><stop offset=".9" stop-color="#929292"/><stop offset="1" stop-color="#fff"/></radialGradient><radialGradient id="c" cx="0" cy="0" r="1" gradientUnits="userSpaceOnUse" gradientTransform="rotate(90.054 -10.127 19.16) scale(7.91155 7.91156)"><stop offset=".7" stop-color="#61B675"/><stop offset=".8" stop-color="#99D0A6"/><stop offset=".9" stop-color="#E4F2E8"/><stop offset="1" stop-color="#fff"/></radialGradient><radialGradient id="d" cx="0" cy="0" r="1" gradientUnits="userSpaceOnUse" gradientTransform="rotate(90.054 -9.626 19.606) scale(7.91155 7.91156)"><stop offset=".6" stop-color="#0B0B0B"/><stop offset=".7" stop-color="#262626"/><stop offset=".8" stop-color="#535353"/><stop offset=".9" stop-color="#929292"/><stop offset="1" stop-color="#fff"/></radialGradient><radialGradient id="e" cx="0" cy="0" r="1" gradientUnits="userSpaceOnUse" gradientTransform="matrix(-.00742 7.91155 -7.91154 -.00742 27.612 10.252)"><stop offset=".7" stop-color="#61B675"/><stop offset=".8" stop-color="#99D0A6"/><stop offset=".9" stop-color="#E4F2E8"/><stop offset="1" stop-color="#fff"/></radialGradient><radialGradient id="f" cx="0" cy="0" r="1" gradientUnits="userSpaceOnUse" gradientTransform="matrix(-.00742 7.91155 -7.91154 -.00742 28.56 10.197)"><stop offset=".6" stop-color="#0B0B0B"/><stop offset=".7" stop-color="#262626"/><stop offset=".8" stop-color="#535353"/><stop offset=".9" stop-color="#929292"/><stop offset="1" stop-color="#fff"/></radialGradient><radialGradient id="g" cx="0" cy="0" r="1" gradientUnits="userSpaceOnUse" gradientTransform="rotate(90.054 -.842 28.436) scale(7.91155 7.91156)"><stop offset=".7" stop-color="#61B675"/><stop offset=".8" stop-color="#99D0A6"/><stop offset=".9" stop-color="#E4F2E8"/><stop offset="1" stop-color="#fff"/></radialGradient><radialGradient id="h" cx="0" cy="0" r="1" gradientUnits="userSpaceOnUse" gradientTransform="rotate(90.054 -.341 28.883) scale(7.91155 7.91156)"><stop offset=".6" stop-color="#0B0B0B"/><stop offset=".7" stop-color="#262626"/><stop offset=".8" stop-color="#535353"/><stop offset=".9" stop-color="#929292"/><stop offset="1" stop-color="#fff"/></radialGradient><radialGradient id="i" cx="0" cy="0" r="1" gradientUnits="userSpaceOnUse" gradientTransform="matrix(-.00742 7.91155 -7.91154 -.00742 9.042 48.373)"><stop offset=".7" stop-color="#61B675"/><stop offset=".8" stop-color="#99D0A6"/><stop offset=".9" stop-color="#E4F2E8"/><stop offset="1" stop-color="#fff"/></radialGradient><radialGradient id="j" cx="0" cy="0" r="1" gradientUnits="userSpaceOnUse" gradientTransform="matrix(-.00742 7.91155 -7.91154 -.00742 9.99 48.317)"><stop offset=".6" stop-color="#0B0B0B"/><stop offset=".7" stop-color="#262626"/><stop offset=".8" stop-color="#535353"/><stop offset=".9" stop-color="#929292"/><stop offset="1" stop-color="#fff"/></radialGradient><radialGradient id="k" cx="0" cy="0" r="1" gradientUnits="userSpaceOnUse" gradientTransform="rotate(90.054 -29.17 38.22) scale(7.91155 7.91156)"><stop offset=".7" stop-color="#61B675"/><stop offset=".8" stop-color="#99D0A6"/><stop offset=".9" stop-color="#E4F2E8"/><stop offset="1" stop-color="#fff"/></radialGradient><radialGradient id="l" cx="0" cy="0" r="1" gradientUnits="userSpaceOnUse" gradientTransform="rotate(90.054 -28.668 38.666) scale(7.91155 7.91156)"><stop offset=".6" stop-color="#0B0B0B"/><stop offset=".7" stop-color="#262626"/><stop offset=".8" stop-color="#535353"/><stop offset=".9" stop-color="#929292"/><stop offset="1" stop-color="#fff"/></radialGradient><radialGradient id="m" cx="0" cy="0" r="1" gradientUnits="userSpaceOnUse" gradientTransform="matrix(-.00742 7.91155 -7.91154 -.00742 27.612 48.373)"><stop offset=".7" stop-color="#61B675"/><stop offset=".8" stop-color="#99D0A6"/><stop offset=".9" stop-color="#E4F2E8"/><stop offset="1" stop-color="#fff"/></radialGradient><radialGradient id="n" cx="0" cy="0" r="1" gradientUnits="userSpaceOnUse" gradientTransform="matrix(-.00742 7.91155 -7.91154 -.00742 28.56 48.317)"><stop offset=".6" stop-color="#0B0B0B"/><stop offset=".7" stop-color="#262626"/><stop offset=".8" stop-color="#535353"/><stop offset=".9" stop-color="#929292"/><stop offset="1" stop-color="#fff"/></radialGradient><radialGradient id="o" cx="0" cy="0" r="1" gradientUnits="userSpaceOnUse" gradientTransform="matrix(-.00742 7.91155 -7.91154 -.00742 9.042 85.373)"><stop offset=".7" stop-color="#61B675"/><stop offset=".8" stop-color="#99D0A6"/><stop offset=".9" stop-color="#E4F2E8"/><stop offset="1" stop-color="#fff"/></radialGradient><radialGradient id="p" cx="0" cy="0" r="1" gradientUnits="userSpaceOnUse" gradientTransform="matrix(-.00742 7.91155 -7.91154 -.00742 9.99 85.317)"><stop offset=".6" stop-color="#0B0B0B"/><stop offset=".7" stop-color="#262626"/><stop offset=".8" stop-color="#535353"/><stop offset=".9" stop-color="#929292"/><stop offset="1" stop-color="#fff"/></radialGradient><radialGradient id="q" cx="0" cy="0" r="1" gradientUnits="userSpaceOnUse" gradientTransform="matrix(-.00742 7.91155 -7.91154 -.00742 27.612 85.373)"><stop offset=".7" stop-color="#61B675"/><stop offset=".8" stop-color="#99D0A6"/><stop offset=".9" stop-color="#E4F2E8"/><stop offset="1" stop-color="#fff"/></radialGradient><radialGradient id="r" cx="0" cy="0" r="1" gradientUnits="userSpaceOnUse" gradientTransform="matrix(-.00742 7.91155 -7.91154 -.00742 28.56 85.317)"><stop offset=".6" stop-color="#0B0B0B"/><stop offset=".7" stop-color="#262626"/><stop offset=".8" stop-color="#535353"/><stop offset=".9" stop-color="#929292"/><stop offset="1" stop-color="#fff"/></radialGradient><radialGradient id="s" cx="0" cy="0" r="1" gradientUnits="userSpaceOnUse" gradientTransform="rotate(90.054 -19.884 47.496) scale(7.91155 7.91156)"><stop offset=".7" stop-color="#61B675"/><stop offset=".8" stop-color="#99D0A6"/><stop offset=".9" stop-color="#E4F2E8"/><stop offset="1" stop-color="#fff"/></radialGradient><radialGradient id="t" cx="0" cy="0" r="1" gradientUnits="userSpaceOnUse" gradientTransform="rotate(90.054 -19.383 47.943) scale(7.91155 7.91156)"><stop offset=".6" stop-color="#0B0B0B"/><stop offset=".7" stop-color="#262626"/><stop offset=".8" stop-color="#535353"/><stop offset=".9" stop-color="#929292"/><stop offset="1" stop-color="#fff"/></radialGradient></defs></svg>