<svg xmlns="http://www.w3.org/2000/svg" width="38" height="95" fill="none"><path fill="#E45398" d="M0 0h38v95H0z"/><path d="M36.239 31.643a7.912 7.912 0 1 0-15.25-4.23 7.912 7.912 0 0 0 15.25 4.23Z" fill="url(#a)" style="mix-blend-mode:multiply" opacity=".6"/><path d="M34.428 27.96c-.014 3.177-2.581 5.76-5.758 5.747-3.176-.014-5.76-2.58-5.747-5.757.014-3.177 2.581-5.76 5.758-5.747 3.176.013 5.76 2.58 5.747 5.757Z" fill="#E45398"/><path style="mix-blend-mode:screen" d="M34.428 27.96c-.014 3.177-2.581 5.76-5.758 5.747-3.176-.014-5.76-2.58-5.747-5.757.014-3.177 2.581-5.76 5.758-5.747 3.176.013 5.76 2.58 5.747 5.757Z" fill="url(#b)"/><path d="M17.204 31.683a7.912 7.912 0 1 0-15.25-4.23 7.912 7.912 0 0 0 15.25 4.23Z" fill="url(#c)" style="mix-blend-mode:multiply" opacity=".6"/><path d="M15.338 27.985c-.014 3.177-2.581 5.761-5.758 5.747-3.176-.013-5.76-2.58-5.747-5.757.014-3.177 2.581-5.76 5.758-5.747 3.176.014 5.76 2.58 5.747 5.757Z" fill="#E45398"/><path style="mix-blend-mode:screen" d="M15.338 27.985c-.014 3.177-2.581 5.761-5.758 5.747-3.176-.013-5.76-2.58-5.747-5.757.014-3.177 2.581-5.76 5.758-5.747 3.176.014 5.76 2.58 5.747 5.757Z" fill="url(#d)"/><path d="M36.239 50.643a7.912 7.912 0 1 0-15.25-4.23 7.912 7.912 0 0 0 15.25 4.23Z" fill="url(#e)" style="mix-blend-mode:multiply" opacity=".6"/><path d="M34.428 46.96c-.014 3.177-2.581 5.76-5.758 5.747-3.176-.014-5.76-2.58-5.747-5.757.014-3.177 2.581-5.76 5.758-5.747 3.176.013 5.76 2.58 5.747 5.757Z" fill="#E45398"/><path style="mix-blend-mode:screen" d="M34.428 46.96c-.014 3.177-2.581 5.76-5.758 5.747-3.176-.014-5.76-2.58-5.747-5.757.014-3.177 2.581-5.76 5.758-5.747 3.176.013 5.76 2.58 5.747 5.757Z" fill="url(#f)"/><path d="M17.204 50.683a7.912 7.912 0 1 0-15.25-4.23 7.912 7.912 0 0 0 15.25 4.23Z" fill="url(#g)" style="mix-blend-mode:multiply" opacity=".6"/><path d="M15.338 46.986c-.014 3.176-2.581 5.76-5.758 5.746-3.176-.013-5.76-2.58-5.747-5.757.014-3.177 2.581-5.76 5.758-5.747 3.176.014 5.76 2.58 5.747 5.758Z" fill="#E45398"/><path style="mix-blend-mode:screen" d="M15.338 46.986c-.014 3.176-2.581 5.76-5.758 5.746-3.176-.013-5.76-2.58-5.747-5.757.014-3.177 2.581-5.76 5.758-5.747 3.176.014 5.76 2.58 5.747 5.758Z" fill="url(#h)"/><path d="M36.239 69.643a7.912 7.912 0 1 0-15.25-4.23 7.912 7.912 0 0 0 15.25 4.23Z" fill="url(#i)" style="mix-blend-mode:multiply" opacity=".6"/><path d="M34.428 65.96c-.014 3.177-2.581 5.76-5.758 5.747-3.176-.014-5.76-2.58-5.747-5.757.014-3.177 2.581-5.76 5.758-5.747 3.176.013 5.76 2.58 5.747 5.757Z" fill="#E45398"/><path style="mix-blend-mode:screen" d="M34.428 65.96c-.014 3.177-2.581 5.76-5.758 5.747-3.176-.014-5.76-2.58-5.747-5.757.014-3.177 2.581-5.76 5.758-5.747 3.176.013 5.76 2.58 5.747 5.757Z" fill="url(#j)"/><path d="M17.204 69.683a7.912 7.912 0 1 0-15.25-4.23 7.912 7.912 0 0 0 15.25 4.23Z" fill="url(#k)" style="mix-blend-mode:multiply" opacity=".6"/><path d="M15.338 65.986c-.014 3.176-2.581 5.76-5.758 5.746-3.176-.013-5.76-2.58-5.747-5.757.014-3.176 2.581-5.76 5.758-5.747 3.176.014 5.76 2.58 5.747 5.758Z" fill="#E45398"/><path style="mix-blend-mode:screen" d="M15.338 65.986c-.014 3.176-2.581 5.76-5.758 5.746-3.176-.013-5.76-2.58-5.747-5.757.014-3.176 2.581-5.76 5.758-5.747 3.176.014 5.76 2.58 5.747 5.758Z" fill="url(#l)"/><path d="M36.239 87.643a7.912 7.912 0 1 0-15.25-4.23 7.912 7.912 0 0 0 15.25 4.23Z" fill="url(#m)" style="mix-blend-mode:multiply" opacity=".6"/><path d="M34.428 83.96c-.014 3.177-2.581 5.76-5.758 5.747-3.176-.014-5.76-2.58-5.747-5.757.014-3.177 2.581-5.76 5.758-5.747 3.176.013 5.76 2.58 5.747 5.757Z" fill="#E45398"/><path style="mix-blend-mode:screen" d="M34.428 83.96c-.014 3.177-2.581 5.76-5.758 5.747-3.176-.014-5.76-2.58-5.747-5.757.014-3.177 2.581-5.76 5.758-5.747 3.176.013 5.76 2.58 5.747 5.757Z" fill="url(#n)"/><path d="M17.204 87.683a7.912 7.912 0 1 0-15.25-4.23 7.912 7.912 0 0 0 15.25 4.23Z" fill="url(#o)" style="mix-blend-mode:multiply" opacity=".6"/><path d="M15.338 83.986c-.014 3.176-2.581 5.76-5.758 5.746-3.176-.013-5.76-2.58-5.747-5.757.014-3.176 2.581-5.76 5.758-5.747 3.176.014 5.76 2.58 5.747 5.758Z" fill="#E45398"/><path style="mix-blend-mode:screen" d="M15.338 83.986c-.014 3.176-2.581 5.76-5.758 5.746-3.176-.013-5.76-2.58-5.747-5.757.014-3.176 2.581-5.76 5.758-5.747 3.176.014 5.76 2.58 5.747 5.758Z" fill="url(#p)"/><path d="M36.239 12.854a7.912 7.912 0 1 0-15.25-4.23 7.912 7.912 0 0 0 15.25 4.23Z" fill="url(#q)" style="mix-blend-mode:multiply" opacity=".6"/><path d="M34.428 9.171c-.014 3.177-2.581 5.76-5.758 5.747-3.176-.014-5.76-2.58-5.747-5.757.014-3.177 2.581-5.761 5.758-5.747 3.176.013 5.76 2.58 5.747 5.757Z" fill="#E45398"/><path style="mix-blend-mode:screen" d="M34.428 9.171c-.014 3.177-2.581 5.76-5.758 5.747-3.176-.014-5.76-2.58-5.747-5.757.014-3.177 2.581-5.761 5.758-5.747 3.176.013 5.76 2.58 5.747 5.757Z" fill="url(#r)"/><path d="M17.204 12.894a7.912 7.912 0 1 0-15.25-4.23 7.912 7.912 0 0 0 15.25 4.23Z" fill="url(#s)" style="mix-blend-mode:multiply" opacity=".6"/><path d="M15.338 9.196c-.014 3.177-2.581 5.761-5.758 5.747-3.176-.013-5.76-2.58-5.747-5.757.014-3.177 2.581-5.76 5.758-5.747 3.176.014 5.76 2.58 5.747 5.757Z" fill="#E45398"/><path style="mix-blend-mode:screen" d="M15.338 9.196c-.014 3.177-2.581 5.761-5.758 5.747-3.176-.013-5.76-2.58-5.747-5.757.014-3.177 2.581-5.76 5.758-5.747 3.176.014 5.76 2.58 5.747 5.757Z" fill="url(#t)"/><defs><radialGradient id="a" cx="0" cy="0" r="1" gradientUnits="userSpaceOnUse" gradientTransform="rotate(-.098 17674.525 -17014.311) scale(7.91238)"><stop offset=".7" stop-color="#D562A4"/><stop offset=".8" stop-color="#EFC5DD"/><stop offset=".9" stop-color="#F8E4EF"/><stop offset="1" stop-color="#fff"/></radialGradient><radialGradient id="b" cx="0" cy="0" r="1" gradientUnits="userSpaceOnUse" gradientTransform="rotate(-.098 17090.231 -16981.755) scale(7.91238)"><stop offset=".6" stop-color="#0B0B0B"/><stop offset=".7" stop-color="#262626"/><stop offset=".8" stop-color="#535353"/><stop offset=".9" stop-color="#929292"/><stop offset="1" stop-color="#fff"/></radialGradient><radialGradient id="c" cx="0" cy="0" r="1" gradientUnits="userSpaceOnUse" gradientTransform="rotate(-.098 17681.141 -5910.982) scale(7.91239)"><stop offset=".7" stop-color="#D562A4"/><stop offset=".8" stop-color="#EFC5DD"/><stop offset=".9" stop-color="#F8E4EF"/><stop offset="1" stop-color="#fff"/></radialGradient><radialGradient id="d" cx="0" cy="0" r="1" gradientUnits="userSpaceOnUse" gradientTransform="rotate(-.098 17096.122 -5877.484) scale(7.91239)"><stop offset=".6" stop-color="#0B0B0B"/><stop offset=".7" stop-color="#262626"/><stop offset=".8" stop-color="#535353"/><stop offset=".9" stop-color="#929292"/><stop offset="1" stop-color="#fff"/></radialGradient><radialGradient id="e" cx="0" cy="0" r="1" gradientUnits="userSpaceOnUse" gradientTransform="rotate(-.098 28744.121 -17004.811) scale(7.91238)"><stop offset=".7" stop-color="#D562A4"/><stop offset=".8" stop-color="#EFC5DD"/><stop offset=".9" stop-color="#F8E4EF"/><stop offset="1" stop-color="#fff"/></radialGradient><radialGradient id="f" cx="0" cy="0" r="1" gradientUnits="userSpaceOnUse" gradientTransform="rotate(-.098 28159.85 -16972.255) scale(7.91238)"><stop offset=".6" stop-color="#0B0B0B"/><stop offset=".7" stop-color="#262626"/><stop offset=".8" stop-color="#535353"/><stop offset=".9" stop-color="#929292"/><stop offset="1" stop-color="#fff"/></radialGradient><radialGradient id="g" cx="0" cy="0" r="1" gradientUnits="userSpaceOnUse" gradientTransform="rotate(-.098 28749.027 -5901.482) scale(7.91239)"><stop offset=".7" stop-color="#D562A4"/><stop offset=".8" stop-color="#EFC5DD"/><stop offset=".9" stop-color="#F8E4EF"/><stop offset="1" stop-color="#fff"/></radialGradient><radialGradient id="h" cx="0" cy="0" r="1" gradientUnits="userSpaceOnUse" gradientTransform="rotate(-.098 28163.389 -5867.984) scale(7.91239)"><stop offset=".6" stop-color="#0B0B0B"/><stop offset=".7" stop-color="#262626"/><stop offset=".8" stop-color="#535353"/><stop offset=".9" stop-color="#929292"/><stop offset="1" stop-color="#fff"/></radialGradient><radialGradient id="i" cx="0" cy="0" r="1" gradientUnits="userSpaceOnUse" gradientTransform="rotate(-.098 39813.718 -16995.311) scale(7.91238)"><stop offset=".7" stop-color="#D562A4"/><stop offset=".8" stop-color="#EFC5DD"/><stop offset=".9" stop-color="#F8E4EF"/><stop offset="1" stop-color="#fff"/></radialGradient><radialGradient id="j" cx="0" cy="0" r="1" gradientUnits="userSpaceOnUse" gradientTransform="rotate(-.098 39229.47 -16962.755) scale(7.91238)"><stop offset=".6" stop-color="#0B0B0B"/><stop offset=".7" stop-color="#262626"/><stop offset=".8" stop-color="#535353"/><stop offset=".9" stop-color="#929292"/><stop offset="1" stop-color="#fff"/></radialGradient><radialGradient id="k" cx="0" cy="0" r="1" gradientUnits="userSpaceOnUse" gradientTransform="rotate(-.098 39816.913 -5891.982) scale(7.91239)"><stop offset=".7" stop-color="#D562A4"/><stop offset=".8" stop-color="#EFC5DD"/><stop offset=".9" stop-color="#F8E4EF"/><stop offset="1" stop-color="#fff"/></radialGradient><radialGradient id="l" cx="0" cy="0" r="1" gradientUnits="userSpaceOnUse" gradientTransform="rotate(-.098 39230.656 -5858.484) scale(7.91239)"><stop offset=".6" stop-color="#0B0B0B"/><stop offset=".7" stop-color="#262626"/><stop offset=".8" stop-color="#535353"/><stop offset=".9" stop-color="#929292"/><stop offset="1" stop-color="#fff"/></radialGradient><radialGradient id="m" cx="0" cy="0" r="1" gradientUnits="userSpaceOnUse" gradientTransform="rotate(-.098 50300.704 -16986.311) scale(7.91238)"><stop offset=".7" stop-color="#D562A4"/><stop offset=".8" stop-color="#EFC5DD"/><stop offset=".9" stop-color="#F8E4EF"/><stop offset="1" stop-color="#fff"/></radialGradient><radialGradient id="n" cx="0" cy="0" r="1" gradientUnits="userSpaceOnUse" gradientTransform="rotate(-.098 49716.477 -16953.755) scale(7.91238)"><stop offset=".6" stop-color="#0B0B0B"/><stop offset=".7" stop-color="#262626"/><stop offset=".8" stop-color="#535353"/><stop offset=".9" stop-color="#929292"/><stop offset="1" stop-color="#fff"/></radialGradient><radialGradient id="o" cx="0" cy="0" r="1" gradientUnits="userSpaceOnUse" gradientTransform="rotate(-.098 50302.278 -5882.982) scale(7.91239)"><stop offset=".7" stop-color="#D562A4"/><stop offset=".8" stop-color="#EFC5DD"/><stop offset=".9" stop-color="#F8E4EF"/><stop offset="1" stop-color="#fff"/></radialGradient><radialGradient id="p" cx="0" cy="0" r="1" gradientUnits="userSpaceOnUse" gradientTransform="rotate(-.098 49715.435 -5849.484) scale(7.91239)"><stop offset=".6" stop-color="#0B0B0B"/><stop offset=".7" stop-color="#262626"/><stop offset=".8" stop-color="#535353"/><stop offset=".9" stop-color="#929292"/><stop offset="1" stop-color="#fff"/></radialGradient><radialGradient id="q" cx="0" cy="0" r="1" gradientUnits="userSpaceOnUse" gradientTransform="rotate(-.098 6727.8 -17023.706) scale(7.91238)"><stop offset=".7" stop-color="#D562A4"/><stop offset=".8" stop-color="#EFC5DD"/><stop offset=".9" stop-color="#F8E4EF"/><stop offset="1" stop-color="#fff"/></radialGradient><radialGradient id="r" cx="0" cy="0" r="1" gradientUnits="userSpaceOnUse" gradientTransform="rotate(-.098 6143.485 -16991.15) scale(7.91238)"><stop offset=".6" stop-color="#0B0B0B"/><stop offset=".7" stop-color="#262626"/><stop offset=".8" stop-color="#535353"/><stop offset=".9" stop-color="#929292"/><stop offset="1" stop-color="#fff"/></radialGradient><radialGradient id="s" cx="0" cy="0" r="1" gradientUnits="userSpaceOnUse" gradientTransform="rotate(-.098 6736.167 -5920.376) scale(7.91239)"><stop offset=".7" stop-color="#D562A4"/><stop offset=".8" stop-color="#EFC5DD"/><stop offset=".9" stop-color="#F8E4EF"/><stop offset="1" stop-color="#fff"/></radialGradient><radialGradient id="t" cx="0" cy="0" r="1" gradientUnits="userSpaceOnUse" gradientTransform="rotate(-.098 6151.76 -5886.878) scale(7.91239)"><stop offset=".6" stop-color="#0B0B0B"/><stop offset=".7" stop-color="#262626"/><stop offset=".8" stop-color="#535353"/><stop offset=".9" stop-color="#929292"/><stop offset="1" stop-color="#fff"/></radialGradient></defs></svg>