<svg xmlns="http://www.w3.org/2000/svg" width="38" height="95" fill="none"><path fill="#F18419" d="M0 0h38v95H0z"/><path style="mix-blend-mode:multiply" opacity=".6" d="M17.756 10.816a7.93 7.93 0 0 1-7.966 7.941 7.93 7.93 0 0 1-7.94-7.966A7.93 7.93 0 0 1 9.814 2.85a7.93 7.93 0 0 1 7.941 7.966Z" fill="url(#a)"/><path d="M15.571 9.276c-.019 3.19-2.6 5.78-5.79 5.761-3.189-.019-5.779-2.6-5.76-5.79.019-3.189 2.6-5.779 5.79-5.76 3.189.019 5.779 2.6 5.76 5.79Z" fill="#F18419"/><path style="mix-blend-mode:color-dodge" d="M15.571 9.276c-.019 3.19-2.6 5.78-5.79 5.761-3.189-.019-5.779-2.6-5.76-5.79.019-3.189 2.6-5.779 5.79-5.76 3.189.019 5.779 2.6 5.76 5.79Z" fill="url(#b)"/><path style="mix-blend-mode:multiply" opacity=".6" d="M36.757 10.816a7.93 7.93 0 0 1-7.967 7.941 7.93 7.93 0 0 1-7.94-7.966 7.93 7.93 0 0 1 7.965-7.941 7.93 7.93 0 0 1 7.942 7.966Z" fill="url(#c)"/><path d="M34.571 9.276c-.019 3.19-2.6 5.78-5.79 5.761-3.189-.019-5.779-2.6-5.76-5.79.019-3.189 2.6-5.779 5.79-5.76 3.189.019 5.779 2.6 5.76 5.79Z" fill="#F18419"/><path style="mix-blend-mode:color-dodge" d="M34.571 9.276c-.019 3.19-2.6 5.78-5.79 5.761-3.189-.019-5.779-2.6-5.76-5.79.019-3.189 2.6-5.779 5.79-5.76 3.189.019 5.779 2.6 5.76 5.79Z" fill="url(#d)"/><path style="mix-blend-mode:multiply" opacity=".6" d="M17.756 29.816a7.93 7.93 0 0 1-7.966 7.941 7.93 7.93 0 0 1-7.94-7.966 7.93 7.93 0 0 1 7.965-7.941 7.93 7.93 0 0 1 7.941 7.966Z" fill="url(#e)"/><path d="M15.571 28.276c-.019 3.19-2.6 5.78-5.79 5.761-3.189-.019-5.779-2.6-5.76-5.79.019-3.189 2.6-5.779 5.79-5.76 3.189.019 5.779 2.6 5.76 5.79Z" fill="#F18419"/><path style="mix-blend-mode:color-dodge" d="M15.571 28.276c-.019 3.19-2.6 5.78-5.79 5.761-3.189-.019-5.779-2.6-5.76-5.79.019-3.189 2.6-5.779 5.79-5.76 3.189.019 5.779 2.6 5.76 5.79Z" fill="url(#f)"/><path style="mix-blend-mode:multiply" opacity=".6" d="M36.757 29.816a7.93 7.93 0 0 1-7.967 7.941 7.93 7.93 0 0 1-7.94-7.966 7.93 7.93 0 0 1 7.965-7.941 7.93 7.93 0 0 1 7.942 7.966Z" fill="url(#g)"/><path d="M34.571 28.276c-.019 3.19-2.6 5.78-5.79 5.761-3.189-.019-5.779-2.6-5.76-5.79.019-3.189 2.6-5.779 5.79-5.76 3.189.019 5.779 2.6 5.76 5.79Z" fill="#F18419"/><path style="mix-blend-mode:color-dodge" d="M34.571 28.276c-.019 3.19-2.6 5.78-5.79 5.761-3.189-.019-5.779-2.6-5.76-5.79.019-3.189 2.6-5.779 5.79-5.76 3.189.019 5.779 2.6 5.76 5.79Z" fill="url(#h)"/><path style="mix-blend-mode:multiply" opacity=".6" d="M17.756 67.816a7.93 7.93 0 0 1-7.966 7.941 7.93 7.93 0 0 1-7.94-7.966 7.93 7.93 0 0 1 7.965-7.941 7.93 7.93 0 0 1 7.941 7.966Z" fill="url(#i)"/><path d="M15.571 66.276c-.019 3.19-2.6 5.78-5.79 5.761-3.189-.019-5.779-2.6-5.76-5.79.019-3.189 2.6-5.779 5.79-5.76 3.189.019 5.779 2.6 5.76 5.79Z" fill="#F18419"/><path style="mix-blend-mode:color-dodge" d="M15.571 66.276c-.019 3.19-2.6 5.78-5.79 5.761-3.189-.019-5.779-2.6-5.76-5.79.019-3.189 2.6-5.779 5.79-5.76 3.189.019 5.779 2.6 5.76 5.79Z" fill="url(#j)"/><path style="mix-blend-mode:multiply" opacity=".6" d="M36.757 67.816a7.93 7.93 0 0 1-7.967 7.941 7.93 7.93 0 0 1-7.94-7.966 7.93 7.93 0 0 1 7.965-7.941 7.93 7.93 0 0 1 7.942 7.966Z" fill="url(#k)"/><path d="M34.571 66.276c-.019 3.19-2.6 5.78-5.79 5.761-3.189-.019-5.779-2.6-5.76-5.79.019-3.189 2.6-5.779 5.79-5.76 3.189.019 5.779 2.6 5.76 5.79Z" fill="#F18419"/><path style="mix-blend-mode:color-dodge" d="M34.571 66.276c-.019 3.19-2.6 5.78-5.79 5.761-3.189-.019-5.779-2.6-5.76-5.79.019-3.189 2.6-5.779 5.79-5.76 3.189.019 5.779 2.6 5.76 5.79Z" fill="url(#l)"/><path style="mix-blend-mode:multiply" opacity=".6" d="M17.756 86.816a7.93 7.93 0 0 1-7.966 7.941 7.93 7.93 0 0 1-7.94-7.966 7.93 7.93 0 0 1 7.965-7.941 7.93 7.93 0 0 1 7.941 7.966Z" fill="url(#m)"/><path d="M15.571 85.276c-.019 3.19-2.6 5.78-5.79 5.761-3.189-.019-5.779-2.6-5.76-5.79.019-3.189 2.6-5.779 5.79-5.76 3.189.019 5.779 2.6 5.76 5.79Z" fill="#F18419"/><path style="mix-blend-mode:color-dodge" d="M15.571 85.276c-.019 3.19-2.6 5.78-5.79 5.761-3.189-.019-5.779-2.6-5.76-5.79.019-3.189 2.6-5.779 5.79-5.76 3.189.019 5.779 2.6 5.76 5.79Z" fill="url(#n)"/><path style="mix-blend-mode:multiply" opacity=".6" d="M36.757 86.816a7.93 7.93 0 0 1-7.967 7.941 7.93 7.93 0 0 1-7.94-7.966 7.93 7.93 0 0 1 7.965-7.941 7.93 7.93 0 0 1 7.942 7.966Z" fill="url(#o)"/><path d="M34.571 85.276c-.019 3.19-2.6 5.78-5.79 5.761-3.189-.019-5.779-2.6-5.76-5.79.019-3.189 2.6-5.779 5.79-5.76 3.189.019 5.779 2.6 5.76 5.79Z" fill="#F18419"/><path style="mix-blend-mode:color-dodge" d="M34.571 85.276c-.019 3.19-2.6 5.78-5.79 5.761-3.189-.019-5.779-2.6-5.76-5.79.019-3.189 2.6-5.779 5.79-5.76 3.189.019 5.779 2.6 5.76 5.79Z" fill="url(#p)"/><path style="mix-blend-mode:multiply" opacity=".6" d="M17.756 48.816a7.93 7.93 0 0 1-7.966 7.941 7.93 7.93 0 0 1-7.94-7.966 7.93 7.93 0 0 1 7.965-7.941 7.93 7.93 0 0 1 7.941 7.966Z" fill="url(#q)"/><path d="M15.571 47.276c-.019 3.19-2.6 5.78-5.79 5.761-3.189-.019-5.779-2.6-5.76-5.79.019-3.189 2.6-5.779 5.79-5.76 3.189.019 5.779 2.6 5.76 5.79Z" fill="#F18419"/><path style="mix-blend-mode:color-dodge" d="M15.571 47.276c-.019 3.19-2.6 5.78-5.79 5.761-3.189-.019-5.779-2.6-5.76-5.79.019-3.189 2.6-5.779 5.79-5.76 3.189.019 5.779 2.6 5.76 5.79Z" fill="url(#r)"/><path style="mix-blend-mode:multiply" opacity=".6" d="M36.757 48.816a7.93 7.93 0 0 1-7.967 7.941 7.93 7.93 0 0 1-7.94-7.966 7.93 7.93 0 0 1 7.965-7.941 7.93 7.93 0 0 1 7.942 7.966Z" fill="url(#s)"/><path d="M34.571 47.276c-.019 3.19-2.6 5.78-5.79 5.761-3.189-.019-5.779-2.6-5.76-5.79.019-3.189 2.6-5.779 5.79-5.76 3.189.019 5.779 2.6 5.76 5.79Z" fill="#F18419"/><path style="mix-blend-mode:color-dodge" d="M34.571 47.276c-.019 3.19-2.6 5.78-5.79 5.761-3.189-.019-5.779-2.6-5.76-5.79.019-3.189 2.6-5.779 5.79-5.76 3.189.019 5.779 2.6 5.76 5.79Z" fill="url(#t)"/><defs><radialGradient id="a" cx="0" cy="0" r="1" gradientUnits="userSpaceOnUse" gradientTransform="translate(9.4 10.62) scale(7.94407)"><stop offset=".7" stop-color="#F4AD61"/><stop offset=".8" stop-color="#F8CA99"/><stop offset=".9" stop-color="#FDF1E4"/><stop offset="1" stop-color="#fff"/></radialGradient><radialGradient id="b" cx="0" cy="0" r="1" gradientUnits="userSpaceOnUse" gradientTransform="matrix(7.94407 0 0 7.94406 9.342 9.612)"><stop offset=".6" stop-color="#0B0B0B"/><stop offset=".7" stop-color="#262626"/><stop offset=".8" stop-color="#535353"/><stop offset=".9" stop-color="#929292"/><stop offset="1" stop-color="#fff"/></radialGradient><radialGradient id="c" cx="0" cy="0" r="1" gradientUnits="userSpaceOnUse" gradientTransform="translate(28.4 10.62) scale(7.94407)"><stop offset=".7" stop-color="#F4AD61"/><stop offset=".8" stop-color="#F8CA99"/><stop offset=".9" stop-color="#FDF1E4"/><stop offset="1" stop-color="#fff"/></radialGradient><radialGradient id="d" cx="0" cy="0" r="1" gradientUnits="userSpaceOnUse" gradientTransform="matrix(7.94407 0 0 7.94406 28.343 9.612)"><stop offset=".6" stop-color="#0B0B0B"/><stop offset=".7" stop-color="#262626"/><stop offset=".8" stop-color="#535353"/><stop offset=".9" stop-color="#929292"/><stop offset="1" stop-color="#fff"/></radialGradient><radialGradient id="e" cx="0" cy="0" r="1" gradientUnits="userSpaceOnUse" gradientTransform="translate(9.4 29.62) scale(7.94407)"><stop offset=".7" stop-color="#F4AD61"/><stop offset=".8" stop-color="#F8CA99"/><stop offset=".9" stop-color="#FDF1E4"/><stop offset="1" stop-color="#fff"/></radialGradient><radialGradient id="f" cx="0" cy="0" r="1" gradientUnits="userSpaceOnUse" gradientTransform="matrix(7.94407 0 0 7.94406 9.342 28.612)"><stop offset=".6" stop-color="#0B0B0B"/><stop offset=".7" stop-color="#262626"/><stop offset=".8" stop-color="#535353"/><stop offset=".9" stop-color="#929292"/><stop offset="1" stop-color="#fff"/></radialGradient><radialGradient id="g" cx="0" cy="0" r="1" gradientUnits="userSpaceOnUse" gradientTransform="translate(28.4 29.62) scale(7.94407)"><stop offset=".7" stop-color="#F4AD61"/><stop offset=".8" stop-color="#F8CA99"/><stop offset=".9" stop-color="#FDF1E4"/><stop offset="1" stop-color="#fff"/></radialGradient><radialGradient id="h" cx="0" cy="0" r="1" gradientUnits="userSpaceOnUse" gradientTransform="matrix(7.94407 0 0 7.94406 28.343 28.612)"><stop offset=".6" stop-color="#0B0B0B"/><stop offset=".7" stop-color="#262626"/><stop offset=".8" stop-color="#535353"/><stop offset=".9" stop-color="#929292"/><stop offset="1" stop-color="#fff"/></radialGradient><radialGradient id="i" cx="0" cy="0" r="1" gradientUnits="userSpaceOnUse" gradientTransform="translate(9.4 67.62) scale(7.94407)"><stop offset=".7" stop-color="#F4AD61"/><stop offset=".8" stop-color="#F8CA99"/><stop offset=".9" stop-color="#FDF1E4"/><stop offset="1" stop-color="#fff"/></radialGradient><radialGradient id="j" cx="0" cy="0" r="1" gradientUnits="userSpaceOnUse" gradientTransform="matrix(7.94407 0 0 7.94406 9.342 66.612)"><stop offset=".6" stop-color="#0B0B0B"/><stop offset=".7" stop-color="#262626"/><stop offset=".8" stop-color="#535353"/><stop offset=".9" stop-color="#929292"/><stop offset="1" stop-color="#fff"/></radialGradient><radialGradient id="k" cx="0" cy="0" r="1" gradientUnits="userSpaceOnUse" gradientTransform="translate(28.4 67.62) scale(7.94407)"><stop offset=".7" stop-color="#F4AD61"/><stop offset=".8" stop-color="#F8CA99"/><stop offset=".9" stop-color="#FDF1E4"/><stop offset="1" stop-color="#fff"/></radialGradient><radialGradient id="l" cx="0" cy="0" r="1" gradientUnits="userSpaceOnUse" gradientTransform="matrix(7.94407 0 0 7.94406 28.343 66.612)"><stop offset=".6" stop-color="#0B0B0B"/><stop offset=".7" stop-color="#262626"/><stop offset=".8" stop-color="#535353"/><stop offset=".9" stop-color="#929292"/><stop offset="1" stop-color="#fff"/></radialGradient><radialGradient id="m" cx="0" cy="0" r="1" gradientUnits="userSpaceOnUse" gradientTransform="translate(9.4 86.62) scale(7.94407)"><stop offset=".7" stop-color="#F4AD61"/><stop offset=".8" stop-color="#F8CA99"/><stop offset=".9" stop-color="#FDF1E4"/><stop offset="1" stop-color="#fff"/></radialGradient><radialGradient id="n" cx="0" cy="0" r="1" gradientUnits="userSpaceOnUse" gradientTransform="matrix(7.94407 0 0 7.94406 9.342 85.612)"><stop offset=".6" stop-color="#0B0B0B"/><stop offset=".7" stop-color="#262626"/><stop offset=".8" stop-color="#535353"/><stop offset=".9" stop-color="#929292"/><stop offset="1" stop-color="#fff"/></radialGradient><radialGradient id="o" cx="0" cy="0" r="1" gradientUnits="userSpaceOnUse" gradientTransform="translate(28.4 86.62) scale(7.94407)"><stop offset=".7" stop-color="#F4AD61"/><stop offset=".8" stop-color="#F8CA99"/><stop offset=".9" stop-color="#FDF1E4"/><stop offset="1" stop-color="#fff"/></radialGradient><radialGradient id="p" cx="0" cy="0" r="1" gradientUnits="userSpaceOnUse" gradientTransform="matrix(7.94407 0 0 7.94406 28.343 85.612)"><stop offset=".6" stop-color="#0B0B0B"/><stop offset=".7" stop-color="#262626"/><stop offset=".8" stop-color="#535353"/><stop offset=".9" stop-color="#929292"/><stop offset="1" stop-color="#fff"/></radialGradient><radialGradient id="q" cx="0" cy="0" r="1" gradientUnits="userSpaceOnUse" gradientTransform="translate(9.4 48.62) scale(7.94407)"><stop offset=".7" stop-color="#F4AD61"/><stop offset=".8" stop-color="#F8CA99"/><stop offset=".9" stop-color="#FDF1E4"/><stop offset="1" stop-color="#fff"/></radialGradient><radialGradient id="r" cx="0" cy="0" r="1" gradientUnits="userSpaceOnUse" gradientTransform="matrix(7.94407 0 0 7.94406 9.342 47.612)"><stop offset=".6" stop-color="#0B0B0B"/><stop offset=".7" stop-color="#262626"/><stop offset=".8" stop-color="#535353"/><stop offset=".9" stop-color="#929292"/><stop offset="1" stop-color="#fff"/></radialGradient><radialGradient id="s" cx="0" cy="0" r="1" gradientUnits="userSpaceOnUse" gradientTransform="translate(28.4 48.62) scale(7.94407)"><stop offset=".7" stop-color="#F4AD61"/><stop offset=".8" stop-color="#F8CA99"/><stop offset=".9" stop-color="#FDF1E4"/><stop offset="1" stop-color="#fff"/></radialGradient><radialGradient id="t" cx="0" cy="0" r="1" gradientUnits="userSpaceOnUse" gradientTransform="matrix(7.94407 0 0 7.94406 28.343 47.612)"><stop offset=".6" stop-color="#0B0B0B"/><stop offset=".7" stop-color="#262626"/><stop offset=".8" stop-color="#535353"/><stop offset=".9" stop-color="#929292"/><stop offset="1" stop-color="#fff"/></radialGradient></defs></svg>