<svg width="38" height="96" fill="none" xmlns="http://www.w3.org/2000/svg"><g clip-path="url(#a)"><path fill="#65B6E7" d="M0 .07h38v38H0z"/><g clip-path="url(#b)"><path fill="#E45398" d="M0 19.07h38v19H0z"/><path d="M17.203 31.965a7.912 7.912 0 1 0-15.25-4.23 7.912 7.912 0 0 0 15.25 4.23Z" fill="url(#c)" style="mix-blend-mode:multiply" opacity=".6"/><path d="M15.338 28.267c-.014 3.177-2.581 5.76-5.758 5.747-3.176-.014-5.76-2.58-5.747-5.757.014-3.177 2.581-5.76 5.758-5.747 3.176.014 5.76 2.58 5.747 5.757Z" fill="#E45398"/><path style="mix-blend-mode:screen" d="M15.338 28.267c-.014 3.177-2.581 5.76-5.758 5.747-3.176-.014-5.76-2.58-5.747-5.757.014-3.177 2.581-5.76 5.758-5.747 3.176.014 5.76 2.58 5.747 5.757Z" fill="url(#d)"/><path d="M36.238 31.924a7.912 7.912 0 1 0-15.25-4.23 7.912 7.912 0 0 0 15.25 4.23Z" fill="url(#e)" style="mix-blend-mode:multiply" opacity=".6"/><path d="M34.426 28.241c-.013 3.177-2.58 5.76-5.757 5.747-3.176-.014-5.76-2.58-5.747-5.757.014-3.177 2.581-5.76 5.758-5.747 3.176.014 5.76 2.58 5.746 5.757Z" fill="#E45398"/><path style="mix-blend-mode:screen" d="M34.426 28.241c-.013 3.177-2.58 5.76-5.757 5.747-3.176-.014-5.76-2.58-5.747-5.757.014-3.177 2.581-5.76 5.758-5.747 3.176.014 5.76 2.58 5.746 5.757Z" fill="url(#f)"/></g><g clip-path="url(#g)"><path fill="#E45398" d="M0 .07h38v19H0z"/><path d="M17.203 12.965a7.912 7.912 0 1 0-15.25-4.23 7.912 7.912 0 0 0 15.25 4.23Z" fill="url(#h)" style="mix-blend-mode:multiply" opacity=".6"/><path d="M15.338 9.267c-.014 3.177-2.581 5.76-5.758 5.747-3.176-.014-5.76-2.58-5.747-5.757.014-3.177 2.581-5.76 5.758-5.747 3.176.014 5.76 2.58 5.747 5.757Z" fill="#E45398"/><path style="mix-blend-mode:screen" d="M15.338 9.267c-.014 3.177-2.581 5.76-5.758 5.747-3.176-.014-5.76-2.58-5.747-5.757.014-3.177 2.581-5.76 5.758-5.747 3.176.014 5.76 2.58 5.747 5.757Z" fill="url(#i)"/><path d="M36.238 12.924a7.912 7.912 0 1 0-15.25-4.23 7.912 7.912 0 0 0 15.25 4.23Z" fill="url(#j)" style="mix-blend-mode:multiply" opacity=".6"/><path d="M34.426 9.241c-.013 3.177-2.58 5.76-5.757 5.747-3.176-.013-5.76-2.58-5.747-5.757.014-3.177 2.581-5.76 5.758-5.747 3.176.014 5.76 2.58 5.746 5.757Z" fill="#E45398"/><path style="mix-blend-mode:screen" d="M34.426 9.241c-.013 3.177-2.58 5.76-5.757 5.747-3.176-.013-5.76-2.58-5.747-5.757.014-3.177 2.581-5.76 5.758-5.747 3.176.014 5.76 2.58 5.746 5.757Z" fill="url(#k)"/></g></g><g clip-path="url(#l)"><path fill="#65B6E7" d="M0 38.07h38v38H0z"/><g clip-path="url(#m)"><path fill="#E45398" d="M0 57.07h38v19H0z"/><path d="M17.203 69.965a7.912 7.912 0 1 0-15.25-4.23 7.912 7.912 0 0 0 15.25 4.23Z" fill="url(#n)" style="mix-blend-mode:multiply" opacity=".6"/><path d="M15.338 66.267c-.014 3.177-2.581 5.76-5.758 5.747-3.176-.014-5.76-2.58-5.747-5.757.014-3.177 2.581-5.76 5.758-5.747 3.176.014 5.76 2.58 5.747 5.757Z" fill="#E45398"/><path style="mix-blend-mode:screen" d="M15.338 66.267c-.014 3.177-2.581 5.76-5.758 5.747-3.176-.014-5.76-2.58-5.747-5.757.014-3.177 2.581-5.76 5.758-5.747 3.176.014 5.76 2.58 5.747 5.757Z" fill="url(#o)"/><path d="M36.238 69.924a7.912 7.912 0 1 0-15.25-4.23 7.912 7.912 0 0 0 15.25 4.23Z" fill="url(#p)" style="mix-blend-mode:multiply" opacity=".6"/><path d="M34.426 66.241c-.013 3.177-2.58 5.76-5.757 5.747-3.176-.013-5.76-2.58-5.747-5.757.014-3.177 2.581-5.76 5.758-5.747 3.176.014 5.76 2.58 5.746 5.757Z" fill="#E45398"/><path style="mix-blend-mode:screen" d="M34.426 66.241c-.013 3.177-2.58 5.76-5.757 5.747-3.176-.013-5.76-2.58-5.747-5.757.014-3.177 2.581-5.76 5.758-5.747 3.176.014 5.76 2.58 5.746 5.757Z" fill="url(#q)"/></g><g clip-path="url(#r)"><path fill="#E45398" d="M0 38.07h38v19H0z"/><path d="M17.203 50.965a7.912 7.912 0 1 0-15.25-4.23 7.912 7.912 0 0 0 15.25 4.23Z" fill="url(#s)" style="mix-blend-mode:multiply" opacity=".6"/><path d="M15.338 47.267c-.014 3.177-2.581 5.76-5.758 5.747-3.176-.014-5.76-2.58-5.747-5.757.014-3.177 2.581-5.76 5.758-5.747 3.176.014 5.76 2.58 5.747 5.757Z" fill="#E45398"/><path style="mix-blend-mode:screen" d="M15.338 47.267c-.014 3.177-2.581 5.76-5.758 5.747-3.176-.014-5.76-2.58-5.747-5.757.014-3.177 2.581-5.76 5.758-5.747 3.176.014 5.76 2.58 5.747 5.757Z" fill="url(#t)"/><path d="M36.238 50.924a7.912 7.912 0 1 0-15.25-4.23 7.912 7.912 0 0 0 15.25 4.23Z" fill="url(#u)" style="mix-blend-mode:multiply" opacity=".6"/><path d="M34.426 47.241c-.013 3.177-2.58 5.76-5.757 5.747-3.176-.014-5.76-2.58-5.747-5.757.014-3.177 2.581-5.76 5.758-5.747 3.176.014 5.76 2.58 5.746 5.757Z" fill="#E45398"/><path style="mix-blend-mode:screen" d="M34.426 47.241c-.013 3.177-2.58 5.76-5.757 5.747-3.176-.014-5.76-2.58-5.747-5.757.014-3.177 2.581-5.76 5.758-5.747 3.176.014 5.76 2.58 5.746 5.757Z" fill="url(#v)"/></g></g><g clip-path="url(#w)"><path fill="#65B6E7" d="M0 57.07h38v38H0z"/><g clip-path="url(#x)"><path fill="#E45398" d="M0 76.07h38v19H0z"/><path d="M17.203 88.965a7.912 7.912 0 1 0-15.25-4.23 7.912 7.912 0 0 0 15.25 4.23Z" fill="url(#y)" style="mix-blend-mode:multiply" opacity=".6"/><path d="M15.338 85.267c-.014 3.177-2.581 5.76-5.758 5.747-3.176-.014-5.76-2.58-5.747-5.757.014-3.177 2.581-5.76 5.758-5.747 3.176.014 5.76 2.58 5.747 5.757Z" fill="#E45398"/><path style="mix-blend-mode:screen" d="M15.338 85.267c-.014 3.177-2.581 5.76-5.758 5.747-3.176-.014-5.76-2.58-5.747-5.757.014-3.177 2.581-5.76 5.758-5.747 3.176.014 5.76 2.58 5.747 5.757Z" fill="url(#z)"/><path d="M36.238 88.924a7.912 7.912 0 1 0-15.25-4.23 7.912 7.912 0 0 0 15.25 4.23Z" fill="url(#A)" style="mix-blend-mode:multiply" opacity=".6"/><path d="M34.426 85.241c-.013 3.177-2.58 5.76-5.757 5.747-3.176-.013-5.76-2.58-5.747-5.757.014-3.177 2.581-5.76 5.758-5.747 3.176.014 5.76 2.58 5.746 5.757Z" fill="#E45398"/><path style="mix-blend-mode:screen" d="M34.426 85.241c-.013 3.177-2.58 5.76-5.757 5.747-3.176-.013-5.76-2.58-5.747-5.757.014-3.177 2.581-5.76 5.758-5.747 3.176.014 5.76 2.58 5.746 5.757Z" fill="url(#B)"/></g><g clip-path="url(#C)"><path fill="#E45398" d="M0 57.07h38v19H0z"/><path d="M17.203 69.965a7.912 7.912 0 1 0-15.25-4.23 7.912 7.912 0 0 0 15.25 4.23Z" fill="url(#D)" style="mix-blend-mode:multiply" opacity=".6"/><path d="M15.338 66.267c-.014 3.177-2.581 5.76-5.758 5.747-3.176-.014-5.76-2.58-5.747-5.757.014-3.177 2.581-5.76 5.758-5.747 3.176.014 5.76 2.58 5.747 5.757Z" fill="#E45398"/><path style="mix-blend-mode:screen" d="M15.338 66.267c-.014 3.177-2.581 5.76-5.758 5.747-3.176-.014-5.76-2.58-5.747-5.757.014-3.177 2.581-5.76 5.758-5.747 3.176.014 5.76 2.58 5.747 5.757Z" fill="url(#E)"/><path d="M36.238 69.924a7.912 7.912 0 1 0-15.25-4.23 7.912 7.912 0 0 0 15.25 4.23Z" fill="url(#F)" style="mix-blend-mode:multiply" opacity=".6"/><path d="M34.426 66.241c-.013 3.177-2.58 5.76-5.757 5.747-3.176-.013-5.76-2.58-5.747-5.757.014-3.177 2.581-5.76 5.758-5.747 3.176.014 5.76 2.58 5.746 5.757Z" fill="#E45398"/><path style="mix-blend-mode:screen" d="M34.426 66.241c-.013 3.177-2.58 5.76-5.757 5.747-3.176-.013-5.76-2.58-5.747-5.757.014-3.177 2.581-5.76 5.758-5.747 3.176.014 5.76 2.58 5.746 5.757Z" fill="url(#G)"/></g></g><defs><radialGradient id="c" cx="0" cy="0" r="1" gradientUnits="userSpaceOnUse" gradientTransform="rotate(-.098 17845.295 -5910.317) scale(7.91239)"><stop offset=".7" stop-color="#D562A4"/><stop offset=".8" stop-color="#EFC5DD"/><stop offset=".9" stop-color="#F8E4EF"/><stop offset="1" stop-color="#fff"/></radialGradient><radialGradient id="d" cx="0" cy="0" r="1" gradientUnits="userSpaceOnUse" gradientTransform="rotate(-.098 17260.267 -5877.343) scale(7.91239)"><stop offset=".6" stop-color="#0B0B0B"/><stop offset=".7" stop-color="#262626"/><stop offset=".8" stop-color="#535353"/><stop offset=".9" stop-color="#929292"/><stop offset="1" stop-color="#fff"/></radialGradient><radialGradient id="e" cx="0" cy="0" r="1" gradientUnits="userSpaceOnUse" gradientTransform="rotate(-.098 17838.354 -17013.588) scale(7.91238)"><stop offset=".7" stop-color="#D562A4"/><stop offset=".8" stop-color="#EFC5DD"/><stop offset=".9" stop-color="#F8E4EF"/><stop offset="1" stop-color="#fff"/></radialGradient><radialGradient id="f" cx="0" cy="0" r="1" gradientUnits="userSpaceOnUse" gradientTransform="rotate(-.098 17254.061 -16981.032) scale(7.91238)"><stop offset=".6" stop-color="#0B0B0B"/><stop offset=".7" stop-color="#262626"/><stop offset=".8" stop-color="#535353"/><stop offset=".9" stop-color="#929292"/><stop offset="1" stop-color="#fff"/></radialGradient><radialGradient id="h" cx="0" cy="0" r="1" gradientUnits="userSpaceOnUse" gradientTransform="rotate(-.098 6777.409 -5919.817) scale(7.91239)"><stop offset=".7" stop-color="#D562A4"/><stop offset=".8" stop-color="#EFC5DD"/><stop offset=".9" stop-color="#F8E4EF"/><stop offset="1" stop-color="#fff"/></radialGradient><radialGradient id="i" cx="0" cy="0" r="1" gradientUnits="userSpaceOnUse" gradientTransform="rotate(-.098 6193 -5886.843) scale(7.91239)"><stop offset=".6" stop-color="#0B0B0B"/><stop offset=".7" stop-color="#262626"/><stop offset=".8" stop-color="#535353"/><stop offset=".9" stop-color="#929292"/><stop offset="1" stop-color="#fff"/></radialGradient><radialGradient id="j" cx="0" cy="0" r="1" gradientUnits="userSpaceOnUse" gradientTransform="rotate(-.098 6768.758 -17023.088) scale(7.91238)"><stop offset=".7" stop-color="#D562A4"/><stop offset=".8" stop-color="#EFC5DD"/><stop offset=".9" stop-color="#F8E4EF"/><stop offset="1" stop-color="#fff"/></radialGradient><radialGradient id="k" cx="0" cy="0" r="1" gradientUnits="userSpaceOnUse" gradientTransform="rotate(-.098 6184.442 -16990.532) scale(7.91238)"><stop offset=".6" stop-color="#0B0B0B"/><stop offset=".7" stop-color="#262626"/><stop offset=".8" stop-color="#535353"/><stop offset=".9" stop-color="#929292"/><stop offset="1" stop-color="#fff"/></radialGradient><radialGradient id="n" cx="0" cy="0" r="1" gradientUnits="userSpaceOnUse" gradientTransform="rotate(-.098 39981.067 -5891.317) scale(7.91239)"><stop offset=".7" stop-color="#D562A4"/><stop offset=".8" stop-color="#EFC5DD"/><stop offset=".9" stop-color="#F8E4EF"/><stop offset="1" stop-color="#fff"/></radialGradient><radialGradient id="o" cx="0" cy="0" r="1" gradientUnits="userSpaceOnUse" gradientTransform="rotate(-.098 39394.8 -5858.343) scale(7.91239)"><stop offset=".6" stop-color="#0B0B0B"/><stop offset=".7" stop-color="#262626"/><stop offset=".8" stop-color="#535353"/><stop offset=".9" stop-color="#929292"/><stop offset="1" stop-color="#fff"/></radialGradient><radialGradient id="p" cx="0" cy="0" r="1" gradientUnits="userSpaceOnUse" gradientTransform="rotate(-.098 39977.547 -16994.588) scale(7.91238)"><stop offset=".7" stop-color="#D562A4"/><stop offset=".8" stop-color="#EFC5DD"/><stop offset=".9" stop-color="#F8E4EF"/><stop offset="1" stop-color="#fff"/></radialGradient><radialGradient id="q" cx="0" cy="0" r="1" gradientUnits="userSpaceOnUse" gradientTransform="rotate(-.098 39393.299 -16962.032) scale(7.91238)"><stop offset=".6" stop-color="#0B0B0B"/><stop offset=".7" stop-color="#262626"/><stop offset=".8" stop-color="#535353"/><stop offset=".9" stop-color="#929292"/><stop offset="1" stop-color="#fff"/></radialGradient><radialGradient id="s" cx="0" cy="0" r="1" gradientUnits="userSpaceOnUse" gradientTransform="rotate(-.098 28913.18 -5900.817) scale(7.91239)"><stop offset=".7" stop-color="#D562A4"/><stop offset=".8" stop-color="#EFC5DD"/><stop offset=".9" stop-color="#F8E4EF"/><stop offset="1" stop-color="#fff"/></radialGradient><radialGradient id="t" cx="0" cy="0" r="1" gradientUnits="userSpaceOnUse" gradientTransform="rotate(-.098 28327.534 -5867.843) scale(7.91239)"><stop offset=".6" stop-color="#0B0B0B"/><stop offset=".7" stop-color="#262626"/><stop offset=".8" stop-color="#535353"/><stop offset=".9" stop-color="#929292"/><stop offset="1" stop-color="#fff"/></radialGradient><radialGradient id="u" cx="0" cy="0" r="1" gradientUnits="userSpaceOnUse" gradientTransform="rotate(-.098 28907.95 -17004.088) scale(7.91238)"><stop offset=".7" stop-color="#D562A4"/><stop offset=".8" stop-color="#EFC5DD"/><stop offset=".9" stop-color="#F8E4EF"/><stop offset="1" stop-color="#fff"/></radialGradient><radialGradient id="v" cx="0" cy="0" r="1" gradientUnits="userSpaceOnUse" gradientTransform="rotate(-.098 28323.68 -16971.532) scale(7.91238)"><stop offset=".6" stop-color="#0B0B0B"/><stop offset=".7" stop-color="#262626"/><stop offset=".8" stop-color="#535353"/><stop offset=".9" stop-color="#929292"/><stop offset="1" stop-color="#fff"/></radialGradient><radialGradient id="y" cx="0" cy="0" r="1" gradientUnits="userSpaceOnUse" gradientTransform="rotate(-.098 51048.952 -5881.817) scale(7.91239)"><stop offset=".7" stop-color="#D562A4"/><stop offset=".8" stop-color="#EFC5DD"/><stop offset=".9" stop-color="#F8E4EF"/><stop offset="1" stop-color="#fff"/></radialGradient><radialGradient id="z" cx="0" cy="0" r="1" gradientUnits="userSpaceOnUse" gradientTransform="rotate(-.098 50462.068 -5848.843) scale(7.91239)"><stop offset=".6" stop-color="#0B0B0B"/><stop offset=".7" stop-color="#262626"/><stop offset=".8" stop-color="#535353"/><stop offset=".9" stop-color="#929292"/><stop offset="1" stop-color="#fff"/></radialGradient><radialGradient id="A" cx="0" cy="0" r="1" gradientUnits="userSpaceOnUse" gradientTransform="rotate(-.098 51047.144 -16985.088) scale(7.91238)"><stop offset=".7" stop-color="#D562A4"/><stop offset=".8" stop-color="#EFC5DD"/><stop offset=".9" stop-color="#F8E4EF"/><stop offset="1" stop-color="#fff"/></radialGradient><radialGradient id="B" cx="0" cy="0" r="1" gradientUnits="userSpaceOnUse" gradientTransform="rotate(-.098 50462.918 -16952.532) scale(7.91238)"><stop offset=".6" stop-color="#0B0B0B"/><stop offset=".7" stop-color="#262626"/><stop offset=".8" stop-color="#535353"/><stop offset=".9" stop-color="#929292"/><stop offset="1" stop-color="#fff"/></radialGradient><radialGradient id="D" cx="0" cy="0" r="1" gradientUnits="userSpaceOnUse" gradientTransform="rotate(-.098 39981.067 -5891.317) scale(7.91239)"><stop offset=".7" stop-color="#D562A4"/><stop offset=".8" stop-color="#EFC5DD"/><stop offset=".9" stop-color="#F8E4EF"/><stop offset="1" stop-color="#fff"/></radialGradient><radialGradient id="E" cx="0" cy="0" r="1" gradientUnits="userSpaceOnUse" gradientTransform="rotate(-.098 39394.8 -5858.343) scale(7.91239)"><stop offset=".6" stop-color="#0B0B0B"/><stop offset=".7" stop-color="#262626"/><stop offset=".8" stop-color="#535353"/><stop offset=".9" stop-color="#929292"/><stop offset="1" stop-color="#fff"/></radialGradient><radialGradient id="F" cx="0" cy="0" r="1" gradientUnits="userSpaceOnUse" gradientTransform="rotate(-.098 39977.547 -16994.588) scale(7.91238)"><stop offset=".7" stop-color="#D562A4"/><stop offset=".8" stop-color="#EFC5DD"/><stop offset=".9" stop-color="#F8E4EF"/><stop offset="1" stop-color="#fff"/></radialGradient><radialGradient id="G" cx="0" cy="0" r="1" gradientUnits="userSpaceOnUse" gradientTransform="rotate(-.098 39393.299 -16962.032) scale(7.91238)"><stop offset=".6" stop-color="#0B0B0B"/><stop offset=".7" stop-color="#262626"/><stop offset=".8" stop-color="#535353"/><stop offset=".9" stop-color="#929292"/><stop offset="1" stop-color="#fff"/></radialGradient><clipPath id="a"><path fill="#fff" transform="translate(0 .07)" d="M0 0h38v38H0z"/></clipPath><clipPath id="b"><path fill="#fff" transform="translate(0 19.07)" d="M0 0h38v19H0z"/></clipPath><clipPath id="g"><path fill="#fff" transform="translate(0 .07)" d="M0 0h38v19H0z"/></clipPath><clipPath id="l"><path fill="#fff" transform="translate(0 38.07)" d="M0 0h38v38H0z"/></clipPath><clipPath id="m"><path fill="#fff" transform="translate(0 57.07)" d="M0 0h38v19H0z"/></clipPath><clipPath id="r"><path fill="#fff" transform="translate(0 38.07)" d="M0 0h38v19H0z"/></clipPath><clipPath id="w"><path fill="#fff" transform="translate(0 57.07)" d="M0 0h38v38H0z"/></clipPath><clipPath id="x"><path fill="#fff" transform="translate(0 76.07)" d="M0 0h38v19H0z"/></clipPath><clipPath id="C"><path fill="#fff" transform="translate(0 57.07)" d="M0 0h38v19H0z"/></clipPath></defs></svg>