<svg xmlns="http://www.w3.org/2000/svg" width="38" height="95" fill="none"><path fill="#65B6E7" d="M0 0h38v95H0z"/><path d="M36.784 29.31a7.922 7.922 0 0 1-7.875 8.014 7.922 7.922 0 0 1-8.014-7.875 7.921 7.921 0 0 1 7.875-8.014 7.922 7.922 0 0 1 8.014 7.875Z" fill="url(#a)" style="mix-blend-mode:multiply"/><path d="M34.586 27.795c.015 3.186-2.537 5.8-5.723 5.814-3.186.014-5.8-2.538-5.814-5.724-.014-3.185 2.538-5.8 5.724-5.813 3.185-.015 5.8 2.537 5.813 5.723Z" fill="#65B6E7"/><path style="mix-blend-mode:color-dodge" d="M34.586 27.795c.015 3.186-2.537 5.8-5.723 5.814-3.186.014-5.8-2.538-5.814-5.724-.014-3.185 2.538-5.8 5.724-5.813 3.185-.015 5.8 2.537 5.813 5.723Z" fill="url(#b)"/><path d="M17.313 29.503a7.922 7.922 0 0 1-7.875 8.014 7.922 7.922 0 0 1-8.014-7.875 7.922 7.922 0 0 1 7.875-8.014 7.922 7.922 0 0 1 8.014 7.875Z" fill="url(#c)" style="mix-blend-mode:multiply"/><path d="M15.17 28.003c.015 3.186-2.537 5.8-5.723 5.814-3.186.014-5.8-2.538-5.814-5.724-.014-3.185 2.538-5.8 5.724-5.813 3.185-.015 5.8 2.537 5.814 5.723Z" fill="#65B6E7"/><path style="mix-blend-mode:color-dodge" d="M15.17 28.003c.015 3.186-2.537 5.8-5.723 5.814-3.186.014-5.8-2.538-5.814-5.724-.014-3.185 2.538-5.8 5.724-5.813 3.185-.015 5.8 2.537 5.814 5.723Z" fill="url(#d)"/><path d="M17.12 10.36a7.922 7.922 0 0 1-7.875 8.014 7.922 7.922 0 0 1-8.015-7.875 7.922 7.922 0 0 1 7.875-8.014 7.922 7.922 0 0 1 8.015 7.875Z" fill="url(#e)" style="mix-blend-mode:multiply"/><path d="M14.977 8.86c.014 3.185-2.537 5.799-5.723 5.813-3.186.014-5.8-2.537-5.814-5.723-.014-3.186 2.538-5.8 5.723-5.814 3.186-.014 5.8 2.538 5.814 5.723Z" fill="#65B6E7"/><path style="mix-blend-mode:color-dodge" d="M14.977 8.86c.014 3.185-2.537 5.799-5.723 5.813-3.186.014-5.8-2.537-5.814-5.723-.014-3.186 2.538-5.8 5.723-5.814 3.186-.014 5.8 2.538 5.814 5.723Z" fill="url(#f)"/><path d="M36.59 10.221a7.922 7.922 0 0 1-7.875 8.014 7.921 7.921 0 0 1-8.014-7.875 7.921 7.921 0 0 1 7.875-8.014 7.922 7.922 0 0 1 8.014 7.875Z" fill="url(#g)" style="mix-blend-mode:multiply"/><path d="M34.462 8.667c.014 3.186-2.538 5.8-5.724 5.814-3.186.014-5.8-2.538-5.814-5.724-.014-3.185 2.538-5.8 5.724-5.813 3.185-.015 5.8 2.537 5.814 5.723Z" fill="#65B6E7"/><path style="mix-blend-mode:color-dodge" d="M34.462 8.667c.014 3.186-2.538 5.8-5.724 5.814-3.186.014-5.8-2.538-5.814-5.724-.014-3.185 2.538-5.8 5.724-5.813 3.185-.015 5.8 2.537 5.814 5.723Z" fill="url(#h)"/><path d="M36.784 48.754a7.922 7.922 0 0 1-7.875 8.014 7.922 7.922 0 0 1-8.014-7.875 7.922 7.922 0 0 1 7.875-8.014 7.922 7.922 0 0 1 8.014 7.875Z" fill="url(#i)" style="mix-blend-mode:multiply"/><path d="M34.586 47.24c.015 3.185-2.537 5.799-5.723 5.813-3.186.014-5.8-2.537-5.814-5.723-.014-3.186 2.538-5.8 5.724-5.814 3.185-.014 5.8 2.538 5.813 5.723Z" fill="#65B6E7"/><path style="mix-blend-mode:color-dodge" d="M34.586 47.24c.015 3.185-2.537 5.799-5.723 5.813-3.186.014-5.8-2.537-5.814-5.723-.014-3.186 2.538-5.8 5.724-5.814 3.185-.014 5.8 2.538 5.813 5.723Z" fill="url(#j)"/><path d="M17.313 48.947a7.921 7.921 0 0 1-7.875 8.015 7.922 7.922 0 0 1-8.014-7.875 7.921 7.921 0 0 1 7.875-8.014 7.922 7.922 0 0 1 8.014 7.874Z" fill="url(#k)" style="mix-blend-mode:multiply"/><path d="M15.17 47.447c.015 3.186-2.537 5.8-5.723 5.814-3.186.014-5.8-2.538-5.814-5.723-.014-3.186 2.538-5.8 5.724-5.814 3.185-.014 5.8 2.538 5.814 5.723Z" fill="#65B6E7"/><path style="mix-blend-mode:color-dodge" d="M15.17 47.447c.015 3.186-2.537 5.8-5.723 5.814-3.186.014-5.8-2.538-5.814-5.723-.014-3.186 2.538-5.8 5.724-5.814 3.185-.014 5.8 2.538 5.814 5.723Z" fill="url(#l)"/><path d="M36.784 67.754a7.922 7.922 0 0 1-7.875 8.014 7.922 7.922 0 0 1-8.014-7.875 7.922 7.922 0 0 1 7.875-8.014 7.922 7.922 0 0 1 8.014 7.875Z" fill="url(#m)" style="mix-blend-mode:multiply"/><path d="M34.586 66.24c.015 3.185-2.537 5.799-5.723 5.813-3.186.014-5.8-2.537-5.814-5.723-.014-3.186 2.538-5.8 5.724-5.814 3.185-.014 5.8 2.538 5.813 5.723Z" fill="#65B6E7"/><path style="mix-blend-mode:color-dodge" d="M34.586 66.24c.015 3.185-2.537 5.799-5.723 5.813-3.186.014-5.8-2.537-5.814-5.723-.014-3.186 2.538-5.8 5.724-5.814 3.185-.014 5.8 2.538 5.813 5.723Z" fill="url(#n)"/><path d="M17.313 67.948a7.921 7.921 0 0 1-7.875 8.014 7.922 7.922 0 0 1-8.014-7.875 7.921 7.921 0 0 1 7.875-8.014 7.922 7.922 0 0 1 8.014 7.875Z" fill="url(#o)" style="mix-blend-mode:multiply"/><path d="M15.17 66.447c.015 3.186-2.537 5.8-5.723 5.814-3.186.014-5.8-2.537-5.814-5.723-.014-3.186 2.538-5.8 5.724-5.814 3.185-.014 5.8 2.538 5.814 5.723Z" fill="#65B6E7"/><path style="mix-blend-mode:color-dodge" d="M15.17 66.447c.015 3.186-2.537 5.8-5.723 5.814-3.186.014-5.8-2.537-5.814-5.723-.014-3.186 2.538-5.8 5.724-5.814 3.185-.014 5.8 2.538 5.814 5.723Z" fill="url(#p)"/><path d="M36.784 86.754a7.922 7.922 0 0 1-7.875 8.014 7.922 7.922 0 0 1-8.014-7.875 7.922 7.922 0 0 1 7.875-8.014 7.922 7.922 0 0 1 8.014 7.875Z" fill="url(#q)" style="mix-blend-mode:multiply"/><path d="M34.586 85.24c.015 3.185-2.537 5.799-5.723 5.813-3.186.014-5.8-2.537-5.814-5.723-.014-3.186 2.538-5.8 5.724-5.814 3.185-.014 5.8 2.537 5.813 5.723Z" fill="#65B6E7"/><path style="mix-blend-mode:color-dodge" d="M34.586 85.24c.015 3.185-2.537 5.799-5.723 5.813-3.186.014-5.8-2.537-5.814-5.723-.014-3.186 2.538-5.8 5.724-5.814 3.185-.014 5.8 2.537 5.813 5.723Z" fill="url(#r)"/><path d="M17.313 86.948a7.921 7.921 0 0 1-7.875 8.014 7.922 7.922 0 0 1-8.014-7.875 7.921 7.921 0 0 1 7.875-8.014 7.922 7.922 0 0 1 8.014 7.875Z" fill="url(#s)" style="mix-blend-mode:multiply"/><path d="M15.17 85.447c.015 3.186-2.537 5.8-5.723 5.814-3.186.014-5.8-2.537-5.814-5.723-.014-3.186 2.538-5.8 5.724-5.814 3.185-.014 5.8 2.537 5.814 5.723Z" fill="#65B6E7"/><path style="mix-blend-mode:color-dodge" d="M15.17 85.447c.015 3.186-2.537 5.8-5.723 5.814-3.186.014-5.8-2.537-5.814-5.723-.014-3.186 2.538-5.8 5.724-5.814 3.185-.014 5.8 2.537 5.814 5.723Z" fill="url(#t)"/><defs><radialGradient id="a" cx="0" cy="0" r="1" gradientUnits="userSpaceOnUse" gradientTransform="rotate(-.6 2802.295 -2701.924) scale(7.93526)"><stop offset=".7" stop-color="#99CFEF"/><stop offset=".8" stop-color="#C5E3F6"/><stop offset=".9" stop-color="#E4F2FA"/><stop offset="1" stop-color="#fff"/></radialGradient><radialGradient id="b" cx="0" cy="0" r="1" gradientUnits="userSpaceOnUse" gradientTransform="rotate(-.6 2705.41 -2695.347) scale(7.93527 7.93528)"><stop offset=".6" stop-color="#010101"/><stop offset=".7" stop-color="#262626"/><stop offset=".8" stop-color="#535353"/><stop offset="1" stop-color="#A3A3A3"/></radialGradient><radialGradient id="c" cx="0" cy="0" r="1" gradientUnits="userSpaceOnUse" gradientTransform="rotate(-.6 2811.748 -844.553) scale(7.93526)"><stop offset=".7" stop-color="#99CFEF"/><stop offset=".8" stop-color="#C5E3F6"/><stop offset=".9" stop-color="#E4F2FA"/><stop offset="1" stop-color="#fff"/></radialGradient><radialGradient id="d" cx="0" cy="0" r="1" gradientUnits="userSpaceOnUse" gradientTransform="matrix(7.93486 -.08306 .08306 7.93485 8.927 28.375)"><stop offset=".6" stop-color="#010101"/><stop offset=".7" stop-color="#262626"/><stop offset=".8" stop-color="#535353"/><stop offset="1" stop-color="#A3A3A3"/></radialGradient><radialGradient id="e" cx="0" cy="0" r="1" gradientUnits="userSpaceOnUse" gradientTransform="rotate(-.6 980.316 -834.968) scale(7.93527 7.93526)"><stop offset=".7" stop-color="#99CFEF"/><stop offset=".8" stop-color="#C5E3F6"/><stop offset=".9" stop-color="#E4F2FA"/><stop offset="1" stop-color="#fff"/></radialGradient><radialGradient id="f" cx="0" cy="0" r="1" gradientUnits="userSpaceOnUse" gradientTransform="matrix(7.93486 -.08306 .08306 7.93485 8.726 9.208)"><stop offset=".6" stop-color="#010101"/><stop offset=".7" stop-color="#262626"/><stop offset=".8" stop-color="#535353"/><stop offset="1" stop-color="#A3A3A3"/></radialGradient><radialGradient id="g" cx="0" cy="0" r="1" gradientUnits="userSpaceOnUse" gradientTransform="rotate(-.6 970.956 -2693.813) scale(7.93527 7.93526)"><stop offset=".7" stop-color="#99CFEF"/><stop offset=".8" stop-color="#C5E3F6"/><stop offset=".9" stop-color="#E4F2FA"/><stop offset="1" stop-color="#fff"/></radialGradient><radialGradient id="h" cx="0" cy="0" r="1" gradientUnits="userSpaceOnUse" gradientTransform="rotate(-.6 874.65 -2687.308) scale(7.93529 7.93528)"><stop offset=".6" stop-color="#010101"/><stop offset=".7" stop-color="#262626"/><stop offset=".8" stop-color="#535353"/><stop offset="1" stop-color="#A3A3A3"/></radialGradient><radialGradient id="i" cx="0" cy="0" r="1" gradientUnits="userSpaceOnUse" gradientTransform="rotate(-.6 4660.178 -2692.202) scale(7.93526)"><stop offset=".7" stop-color="#99CFEF"/><stop offset=".8" stop-color="#C5E3F6"/><stop offset=".9" stop-color="#E4F2FA"/><stop offset="1" stop-color="#fff"/></radialGradient><radialGradient id="j" cx="0" cy="0" r="1" gradientUnits="userSpaceOnUse" gradientTransform="rotate(-.6 4562.77 -2685.625) scale(7.93527 7.93528)"><stop offset=".6" stop-color="#010101"/><stop offset=".7" stop-color="#262626"/><stop offset=".8" stop-color="#535353"/><stop offset="1" stop-color="#A3A3A3"/></radialGradient><radialGradient id="k" cx="0" cy="0" r="1" gradientUnits="userSpaceOnUse" gradientTransform="rotate(-.6 4669.646 -834.831) scale(7.93526)"><stop offset=".7" stop-color="#99CFEF"/><stop offset=".8" stop-color="#C5E3F6"/><stop offset=".9" stop-color="#E4F2FA"/><stop offset="1" stop-color="#fff"/></radialGradient><radialGradient id="l" cx="0" cy="0" r="1" gradientUnits="userSpaceOnUse" gradientTransform="rotate(-.6 4572.534 -828.9) scale(7.93529 7.93528)"><stop offset=".6" stop-color="#010101"/><stop offset=".7" stop-color="#262626"/><stop offset=".8" stop-color="#535353"/><stop offset="1" stop-color="#A3A3A3"/></radialGradient><radialGradient id="m" cx="0" cy="0" r="1" gradientUnits="userSpaceOnUse" gradientTransform="rotate(-.6 6475.608 -2682.702) scale(7.93526)"><stop offset=".7" stop-color="#99CFEF"/><stop offset=".8" stop-color="#C5E3F6"/><stop offset=".9" stop-color="#E4F2FA"/><stop offset="1" stop-color="#fff"/></radialGradient><radialGradient id="n" cx="0" cy="0" r="1" gradientUnits="userSpaceOnUse" gradientTransform="matrix(7.93484 -.08307 .08307 7.93485 28.364 66.618)"><stop offset=".6" stop-color="#010101"/><stop offset=".7" stop-color="#262626"/><stop offset=".8" stop-color="#535353"/><stop offset="1" stop-color="#A3A3A3"/></radialGradient><radialGradient id="o" cx="0" cy="0" r="1" gradientUnits="userSpaceOnUse" gradientTransform="rotate(-.6 6485.09 -825.331) scale(7.93526)"><stop offset=".7" stop-color="#99CFEF"/><stop offset=".8" stop-color="#C5E3F6"/><stop offset=".9" stop-color="#E4F2FA"/><stop offset="1" stop-color="#fff"/></radialGradient><radialGradient id="p" cx="0" cy="0" r="1" gradientUnits="userSpaceOnUse" gradientTransform="rotate(-.6 6387.577 -819.4) scale(7.93529 7.93528)"><stop offset=".6" stop-color="#010101"/><stop offset=".7" stop-color="#262626"/><stop offset=".8" stop-color="#535353"/><stop offset="1" stop-color="#A3A3A3"/></radialGradient><radialGradient id="q" cx="0" cy="0" r="1" gradientUnits="userSpaceOnUse" gradientTransform="rotate(-.6 8291.038 -2673.202) scale(7.93526)"><stop offset=".7" stop-color="#99CFEF"/><stop offset=".8" stop-color="#C5E3F6"/><stop offset=".9" stop-color="#E4F2FA"/><stop offset="1" stop-color="#fff"/></radialGradient><radialGradient id="r" cx="0" cy="0" r="1" gradientUnits="userSpaceOnUse" gradientTransform="matrix(7.93484 -.08307 .08307 7.93485 28.364 85.618)"><stop offset=".6" stop-color="#010101"/><stop offset=".7" stop-color="#262626"/><stop offset=".8" stop-color="#535353"/><stop offset="1" stop-color="#A3A3A3"/></radialGradient><radialGradient id="s" cx="0" cy="0" r="1" gradientUnits="userSpaceOnUse" gradientTransform="rotate(-.6 8300.536 -815.831) scale(7.93526)"><stop offset=".7" stop-color="#99CFEF"/><stop offset=".8" stop-color="#C5E3F6"/><stop offset=".9" stop-color="#E4F2FA"/><stop offset="1" stop-color="#fff"/></radialGradient><radialGradient id="t" cx="0" cy="0" r="1" gradientUnits="userSpaceOnUse" gradientTransform="rotate(-.6 8202.62 -809.9) scale(7.93529 7.93528)"><stop offset=".6" stop-color="#010101"/><stop offset=".7" stop-color="#262626"/><stop offset=".8" stop-color="#535353"/><stop offset="1" stop-color="#A3A3A3"/></radialGradient></defs></svg>