<svg width="38" height="96" fill="none" xmlns="http://www.w3.org/2000/svg"><g clip-path="url(#a)"><path fill="#65B6E7" d="M0 .07h38v38H0z"/><path d="M36.783 29.38a7.922 7.922 0 0 1-7.875 8.015 7.922 7.922 0 0 1-8.014-7.875 7.921 7.921 0 0 1 7.875-8.014 7.921 7.921 0 0 1 8.014 7.875Z" fill="url(#b)" style="mix-blend-mode:multiply"/><path d="M34.586 27.866c.014 3.186-2.538 5.8-5.724 5.814-3.185.014-5.8-2.538-5.814-5.723-.014-3.186 2.538-5.8 5.724-5.814 3.185-.014 5.8 2.537 5.814 5.723Z" fill="#65B6E7"/><path style="mix-blend-mode:color-dodge" d="M34.586 27.866c.014 3.186-2.538 5.8-5.724 5.814-3.185.014-5.8-2.538-5.814-5.723-.014-3.186 2.538-5.8 5.724-5.814 3.185-.014 5.8 2.537 5.814 5.723Z" fill="url(#c)"/><path d="M17.314 29.573a7.922 7.922 0 0 1-7.875 8.015 7.922 7.922 0 0 1-8.014-7.875A7.922 7.922 0 0 1 9.3 21.698a7.922 7.922 0 0 1 8.014 7.875Z" fill="url(#d)" style="mix-blend-mode:multiply"/><path d="M15.17 28.074c.015 3.185-2.537 5.8-5.723 5.814-3.186.014-5.8-2.538-5.814-5.724-.014-3.186 2.538-5.8 5.724-5.814 3.185-.014 5.8 2.538 5.814 5.724Z" fill="#65B6E7"/><path style="mix-blend-mode:color-dodge" d="M15.17 28.074c.015 3.185-2.537 5.8-5.723 5.814-3.186.014-5.8-2.538-5.814-5.724-.014-3.186 2.538-5.8 5.724-5.814 3.185-.014 5.8 2.538 5.814 5.724Z" fill="url(#e)"/><path d="M17.12 10.43a7.922 7.922 0 0 1-7.874 8.014A7.922 7.922 0 0 1 1.23 10.57a7.922 7.922 0 0 1 7.875-8.014 7.921 7.921 0 0 1 8.015 7.875Z" fill="url(#f)" style="mix-blend-mode:multiply"/><path d="M14.977 8.93c.014 3.186-2.537 5.8-5.723 5.814-3.186.014-5.8-2.538-5.814-5.723-.014-3.186 2.538-5.8 5.723-5.814 3.186-.014 5.8 2.537 5.814 5.723Z" fill="#65B6E7"/><path style="mix-blend-mode:color-dodge" d="M14.977 8.93c.014 3.186-2.537 5.8-5.723 5.814-3.186.014-5.8-2.538-5.814-5.723-.014-3.186 2.538-5.8 5.723-5.814 3.186-.014 5.8 2.537 5.814 5.723Z" fill="url(#g)"/><path d="M36.59 10.291a7.922 7.922 0 0 1-7.875 8.014 7.921 7.921 0 0 1-8.014-7.874 7.921 7.921 0 0 1 7.875-8.015 7.922 7.922 0 0 1 8.014 7.875Z" fill="url(#h)" style="mix-blend-mode:multiply"/><path d="M34.462 8.737c.014 3.186-2.538 5.8-5.724 5.814-3.186.014-5.8-2.537-5.814-5.723-.014-3.186 2.538-5.8 5.724-5.814 3.185-.014 5.8 2.538 5.814 5.723Z" fill="#65B6E7"/><path style="mix-blend-mode:color-dodge" d="M34.462 8.737c.014 3.186-2.538 5.8-5.724 5.814-3.186.014-5.8-2.537-5.814-5.723-.014-3.186 2.538-5.8 5.724-5.814 3.185-.014 5.8 2.538 5.814 5.723Z" fill="url(#i)"/></g><g clip-path="url(#j)"><path fill="#65B6E7" d="M0 38.07h38v38H0z"/><path d="M36.783 67.38a7.922 7.922 0 0 1-7.875 8.015 7.922 7.922 0 0 1-8.014-7.875 7.921 7.921 0 0 1 7.875-8.014 7.921 7.921 0 0 1 8.014 7.875Z" fill="url(#k)" style="mix-blend-mode:multiply"/><path d="M34.586 65.866c.014 3.186-2.538 5.8-5.724 5.814-3.185.014-5.8-2.538-5.814-5.723-.014-3.186 2.538-5.8 5.724-5.814 3.185-.014 5.8 2.537 5.814 5.723Z" fill="#65B6E7"/><path style="mix-blend-mode:color-dodge" d="M34.586 65.866c.014 3.186-2.538 5.8-5.724 5.814-3.185.014-5.8-2.538-5.814-5.723-.014-3.186 2.538-5.8 5.724-5.814 3.185-.014 5.8 2.537 5.814 5.723Z" fill="url(#l)"/><path d="M17.314 67.573a7.922 7.922 0 0 1-7.875 8.015 7.922 7.922 0 0 1-8.014-7.875A7.922 7.922 0 0 1 9.3 59.699a7.922 7.922 0 0 1 8.014 7.874Z" fill="url(#m)" style="mix-blend-mode:multiply"/><path d="M15.17 66.074c.015 3.185-2.537 5.8-5.723 5.814-3.186.014-5.8-2.538-5.814-5.724-.014-3.186 2.538-5.8 5.724-5.814 3.185-.014 5.8 2.538 5.814 5.724Z" fill="#65B6E7"/><path style="mix-blend-mode:color-dodge" d="M15.17 66.074c.015 3.185-2.537 5.8-5.723 5.814-3.186.014-5.8-2.538-5.814-5.724-.014-3.186 2.538-5.8 5.724-5.814 3.185-.014 5.8 2.538 5.814 5.724Z" fill="url(#n)"/><path d="M17.12 48.43a7.922 7.922 0 0 1-7.874 8.014A7.922 7.922 0 0 1 1.23 48.57a7.922 7.922 0 0 1 7.875-8.014 7.921 7.921 0 0 1 8.015 7.875Z" fill="url(#o)" style="mix-blend-mode:multiply"/><path d="M14.977 46.93c.014 3.186-2.537 5.8-5.723 5.814-3.186.014-5.8-2.538-5.814-5.723-.014-3.186 2.538-5.8 5.723-5.814 3.186-.014 5.8 2.537 5.814 5.723Z" fill="#65B6E7"/><path style="mix-blend-mode:color-dodge" d="M14.977 46.93c.014 3.186-2.537 5.8-5.723 5.814-3.186.014-5.8-2.538-5.814-5.723-.014-3.186 2.538-5.8 5.723-5.814 3.186-.014 5.8 2.537 5.814 5.723Z" fill="url(#p)"/><path d="M36.59 48.291a7.922 7.922 0 0 1-7.875 8.015 7.921 7.921 0 0 1-8.014-7.875 7.922 7.922 0 0 1 7.875-8.015 7.922 7.922 0 0 1 8.014 7.875Z" fill="url(#q)" style="mix-blend-mode:multiply"/><path d="M34.462 46.737c.014 3.186-2.538 5.8-5.724 5.814-3.186.014-5.8-2.538-5.814-5.723-.014-3.186 2.538-5.8 5.724-5.814 3.185-.014 5.8 2.537 5.814 5.723Z" fill="#65B6E7"/><path style="mix-blend-mode:color-dodge" d="M34.462 46.737c.014 3.186-2.538 5.8-5.724 5.814-3.186.014-5.8-2.538-5.814-5.723-.014-3.186 2.538-5.8 5.724-5.814 3.185-.014 5.8 2.537 5.814 5.723Z" fill="url(#r)"/></g><g clip-path="url(#s)"><path fill="#65B6E7" d="M0 57.07h38v38H0z"/><path d="M36.783 86.38a7.922 7.922 0 0 1-7.875 8.015 7.922 7.922 0 0 1-8.014-7.875 7.921 7.921 0 0 1 7.875-8.014 7.921 7.921 0 0 1 8.014 7.875Z" fill="url(#t)" style="mix-blend-mode:multiply"/><path d="M34.586 84.866c.014 3.186-2.538 5.8-5.724 5.814-3.185.014-5.8-2.538-5.814-5.723-.014-3.186 2.538-5.8 5.724-5.814 3.185-.014 5.8 2.537 5.814 5.723Z" fill="#65B6E7"/><path style="mix-blend-mode:color-dodge" d="M34.586 84.866c.014 3.186-2.538 5.8-5.724 5.814-3.185.014-5.8-2.538-5.814-5.723-.014-3.186 2.538-5.8 5.724-5.814 3.185-.014 5.8 2.537 5.814 5.723Z" fill="url(#u)"/><path d="M17.314 86.573a7.922 7.922 0 0 1-7.875 8.015 7.922 7.922 0 0 1-8.014-7.875A7.922 7.922 0 0 1 9.3 78.699a7.922 7.922 0 0 1 8.014 7.874Z" fill="url(#v)" style="mix-blend-mode:multiply"/><path d="M15.17 85.074c.015 3.185-2.537 5.8-5.723 5.814-3.186.014-5.8-2.538-5.814-5.724-.014-3.186 2.538-5.8 5.724-5.814 3.185-.014 5.8 2.538 5.814 5.724Z" fill="#65B6E7"/><path style="mix-blend-mode:color-dodge" d="M15.17 85.074c.015 3.185-2.537 5.8-5.723 5.814-3.186.014-5.8-2.538-5.814-5.724-.014-3.186 2.538-5.8 5.724-5.814 3.185-.014 5.8 2.538 5.814 5.724Z" fill="url(#w)"/><path d="M17.12 67.43a7.922 7.922 0 0 1-7.874 8.014A7.922 7.922 0 0 1 1.23 67.57a7.922 7.922 0 0 1 7.875-8.014 7.921 7.921 0 0 1 8.015 7.875Z" fill="url(#x)" style="mix-blend-mode:multiply"/><path d="M14.977 65.93c.014 3.186-2.537 5.8-5.723 5.814-3.186.014-5.8-2.538-5.814-5.723-.014-3.186 2.538-5.8 5.723-5.814 3.186-.014 5.8 2.537 5.814 5.723Z" fill="#65B6E7"/><path style="mix-blend-mode:color-dodge" d="M14.977 65.93c.014 3.186-2.537 5.8-5.723 5.814-3.186.014-5.8-2.538-5.814-5.723-.014-3.186 2.538-5.8 5.723-5.814 3.186-.014 5.8 2.537 5.814 5.723Z" fill="url(#y)"/><path d="M36.59 67.291a7.922 7.922 0 0 1-7.875 8.014 7.921 7.921 0 0 1-8.014-7.875 7.922 7.922 0 0 1 7.875-8.014 7.922 7.922 0 0 1 8.014 7.875Z" fill="url(#z)" style="mix-blend-mode:multiply"/><path d="M34.462 65.737c.014 3.186-2.538 5.8-5.724 5.814-3.186.014-5.8-2.538-5.814-5.723-.014-3.186 2.538-5.8 5.724-5.814 3.185-.014 5.8 2.537 5.814 5.723Z" fill="#65B6E7"/><path style="mix-blend-mode:color-dodge" d="M34.462 65.737c.014 3.186-2.538 5.8-5.724 5.814-3.186.014-5.8-2.538-5.814-5.723-.014-3.186 2.538-5.8 5.724-5.814 3.185-.014 5.8 2.537 5.814 5.723Z" fill="url(#A)"/></g><defs><radialGradient id="b" cx="0" cy="0" r="1" gradientUnits="userSpaceOnUse" gradientTransform="rotate(-.6 2809.06 -2701.793) scale(7.93526)"><stop offset=".7" stop-color="#99CFEF"/><stop offset=".8" stop-color="#C5E3F6"/><stop offset=".9" stop-color="#E4F2FA"/><stop offset="1" stop-color="#fff"/></radialGradient><radialGradient id="c" cx="0" cy="0" r="1" gradientUnits="userSpaceOnUse" gradientTransform="rotate(-.6 2712.22 -2695.226) scale(7.93527 7.93528)"><stop offset=".6" stop-color="#010101"/><stop offset=".7" stop-color="#262626"/><stop offset=".8" stop-color="#535353"/><stop offset="1" stop-color="#A3A3A3"/></radialGradient><radialGradient id="d" cx="0" cy="0" r="1" gradientUnits="userSpaceOnUse" gradientTransform="rotate(-.6 2818.465 -844.612) scale(7.93526)"><stop offset=".7" stop-color="#99CFEF"/><stop offset=".8" stop-color="#C5E3F6"/><stop offset=".9" stop-color="#E4F2FA"/><stop offset="1" stop-color="#fff"/></radialGradient><radialGradient id="e" cx="0" cy="0" r="1" gradientUnits="userSpaceOnUse" gradientTransform="matrix(7.93486 -.08306 .08306 7.93485 8.927 28.445)"><stop offset=".6" stop-color="#010101"/><stop offset=".7" stop-color="#262626"/><stop offset=".8" stop-color="#535353"/><stop offset="1" stop-color="#A3A3A3"/></radialGradient><radialGradient id="f" cx="0" cy="0" r="1" gradientUnits="userSpaceOnUse" gradientTransform="rotate(-.6 987.034 -835.026) scale(7.93527 7.93526)"><stop offset=".7" stop-color="#99CFEF"/><stop offset=".8" stop-color="#C5E3F6"/><stop offset=".9" stop-color="#E4F2FA"/><stop offset="1" stop-color="#fff"/></radialGradient><radialGradient id="g" cx="0" cy="0" r="1" gradientUnits="userSpaceOnUse" gradientTransform="matrix(7.93486 -.08306 .08306 7.93485 8.726 9.279)"><stop offset=".6" stop-color="#010101"/><stop offset=".7" stop-color="#262626"/><stop offset=".8" stop-color="#535353"/><stop offset="1" stop-color="#A3A3A3"/></radialGradient><radialGradient id="h" cx="0" cy="0" r="1" gradientUnits="userSpaceOnUse" gradientTransform="rotate(-.6 977.673 -2693.778) scale(7.93527 7.93526)"><stop offset=".7" stop-color="#99CFEF"/><stop offset=".8" stop-color="#C5E3F6"/><stop offset=".9" stop-color="#E4F2FA"/><stop offset="1" stop-color="#fff"/></radialGradient><radialGradient id="i" cx="0" cy="0" r="1" gradientUnits="userSpaceOnUse" gradientTransform="matrix(7.93486 -.08306 .08306 7.93485 28.178 9.079)"><stop offset=".6" stop-color="#010101"/><stop offset=".7" stop-color="#262626"/><stop offset=".8" stop-color="#535353"/><stop offset="1" stop-color="#A3A3A3"/></radialGradient><radialGradient id="k" cx="0" cy="0" r="1" gradientUnits="userSpaceOnUse" gradientTransform="rotate(-.6 6439.92 -2682.793) scale(7.93526)"><stop offset=".7" stop-color="#99CFEF"/><stop offset=".8" stop-color="#C5E3F6"/><stop offset=".9" stop-color="#E4F2FA"/><stop offset="1" stop-color="#fff"/></radialGradient><radialGradient id="l" cx="0" cy="0" r="1" gradientUnits="userSpaceOnUse" gradientTransform="matrix(7.93484 -.08307 .08307 7.93485 28.364 66.245)"><stop offset=".6" stop-color="#010101"/><stop offset=".7" stop-color="#262626"/><stop offset=".8" stop-color="#535353"/><stop offset="1" stop-color="#A3A3A3"/></radialGradient><radialGradient id="m" cx="0" cy="0" r="1" gradientUnits="userSpaceOnUse" gradientTransform="rotate(-.6 6449.356 -825.612) scale(7.93526)"><stop offset=".7" stop-color="#99CFEF"/><stop offset=".8" stop-color="#C5E3F6"/><stop offset=".9" stop-color="#E4F2FA"/><stop offset="1" stop-color="#fff"/></radialGradient><radialGradient id="n" cx="0" cy="0" r="1" gradientUnits="userSpaceOnUse" gradientTransform="matrix(7.93486 -.08306 .08306 7.93485 8.927 66.445)"><stop offset=".6" stop-color="#010101"/><stop offset=".7" stop-color="#262626"/><stop offset=".8" stop-color="#535353"/><stop offset="1" stop-color="#A3A3A3"/></radialGradient><radialGradient id="o" cx="0" cy="0" r="1" gradientUnits="userSpaceOnUse" gradientTransform="matrix(7.93484 -.08304 .08304 7.93483 8.793 48.284)"><stop offset=".7" stop-color="#99CFEF"/><stop offset=".8" stop-color="#C5E3F6"/><stop offset=".9" stop-color="#E4F2FA"/><stop offset="1" stop-color="#fff"/></radialGradient><radialGradient id="p" cx="0" cy="0" r="1" gradientUnits="userSpaceOnUse" gradientTransform="rotate(-.6 4520.82 -809.968) scale(7.93529 7.93528)"><stop offset=".6" stop-color="#010101"/><stop offset=".7" stop-color="#262626"/><stop offset=".8" stop-color="#535353"/><stop offset="1" stop-color="#A3A3A3"/></radialGradient><radialGradient id="q" cx="0" cy="0" r="1" gradientUnits="userSpaceOnUse" gradientTransform="matrix(7.93484 -.08304 .08304 7.93483 28.244 48.084)"><stop offset=".7" stop-color="#99CFEF"/><stop offset=".8" stop-color="#C5E3F6"/><stop offset=".9" stop-color="#E4F2FA"/><stop offset="1" stop-color="#fff"/></radialGradient><radialGradient id="r" cx="0" cy="0" r="1" gradientUnits="userSpaceOnUse" gradientTransform="rotate(-.6 4511.48 -2668.273) scale(7.93529 7.93528)"><stop offset=".6" stop-color="#010101"/><stop offset=".7" stop-color="#262626"/><stop offset=".8" stop-color="#535353"/><stop offset="1" stop-color="#A3A3A3"/></radialGradient><radialGradient id="t" cx="0" cy="0" r="1" gradientUnits="userSpaceOnUse" gradientTransform="rotate(-.6 8255.35 -2673.293) scale(7.93526)"><stop offset=".7" stop-color="#99CFEF"/><stop offset=".8" stop-color="#C5E3F6"/><stop offset=".9" stop-color="#E4F2FA"/><stop offset="1" stop-color="#fff"/></radialGradient><radialGradient id="u" cx="0" cy="0" r="1" gradientUnits="userSpaceOnUse" gradientTransform="matrix(7.93484 -.08307 .08307 7.93485 28.364 85.245)"><stop offset=".6" stop-color="#010101"/><stop offset=".7" stop-color="#262626"/><stop offset=".8" stop-color="#535353"/><stop offset="1" stop-color="#A3A3A3"/></radialGradient><radialGradient id="v" cx="0" cy="0" r="1" gradientUnits="userSpaceOnUse" gradientTransform="rotate(-.6 8264.8 -816.112) scale(7.93526)"><stop offset=".7" stop-color="#99CFEF"/><stop offset=".8" stop-color="#C5E3F6"/><stop offset=".9" stop-color="#E4F2FA"/><stop offset="1" stop-color="#fff"/></radialGradient><radialGradient id="w" cx="0" cy="0" r="1" gradientUnits="userSpaceOnUse" gradientTransform="rotate(-.6 8166.93 -810.087) scale(7.93529 7.93528)"><stop offset=".6" stop-color="#010101"/><stop offset=".7" stop-color="#262626"/><stop offset=".8" stop-color="#535353"/><stop offset="1" stop-color="#A3A3A3"/></radialGradient><radialGradient id="x" cx="0" cy="0" r="1" gradientUnits="userSpaceOnUse" gradientTransform="matrix(7.93484 -.08304 .08304 7.93483 8.793 67.284)"><stop offset=".7" stop-color="#99CFEF"/><stop offset=".8" stop-color="#C5E3F6"/><stop offset=".9" stop-color="#E4F2FA"/><stop offset="1" stop-color="#fff"/></radialGradient><radialGradient id="y" cx="0" cy="0" r="1" gradientUnits="userSpaceOnUse" gradientTransform="matrix(7.93486 -.08306 .08306 7.93485 8.726 66.279)"><stop offset=".6" stop-color="#010101"/><stop offset=".7" stop-color="#262626"/><stop offset=".8" stop-color="#535353"/><stop offset="1" stop-color="#A3A3A3"/></radialGradient><radialGradient id="z" cx="0" cy="0" r="1" gradientUnits="userSpaceOnUse" gradientTransform="matrix(7.93484 -.08304 .08304 7.93483 28.244 67.084)"><stop offset=".7" stop-color="#99CFEF"/><stop offset=".8" stop-color="#C5E3F6"/><stop offset=".9" stop-color="#E4F2FA"/><stop offset="1" stop-color="#fff"/></radialGradient><radialGradient id="A" cx="0" cy="0" r="1" gradientUnits="userSpaceOnUse" gradientTransform="matrix(7.93486 -.08306 .08306 7.93485 28.178 66.079)"><stop offset=".6" stop-color="#010101"/><stop offset=".7" stop-color="#262626"/><stop offset=".8" stop-color="#535353"/><stop offset="1" stop-color="#A3A3A3"/></radialGradient><clipPath id="a"><path fill="#fff" transform="translate(0 .07)" d="M0 0h38v38H0z"/></clipPath><clipPath id="j"><path fill="#fff" transform="translate(0 38.07)" d="M0 0h38v38H0z"/></clipPath><clipPath id="s"><path fill="#fff" transform="translate(0 57.07)" d="M0 0h38v38H0z"/></clipPath></defs></svg>