<svg width="38" height="96" fill="none" xmlns="http://www.w3.org/2000/svg"><g clip-path="url(#a)"><path fill="#65B6E7" d="M0 .07h38v38H0z"/><path d="M36.783 29.38a7.922 7.922 0 0 1-7.875 8.015 7.922 7.922 0 0 1-8.014-7.875 7.921 7.921 0 0 1 7.875-8.014 7.921 7.921 0 0 1 8.014 7.875Z" fill="url(#b)" style="mix-blend-mode:multiply"/><path d="M34.586 27.866c.014 3.186-2.538 5.8-5.724 5.814-3.185.014-5.8-2.538-5.814-5.723-.014-3.186 2.538-5.8 5.724-5.814 3.185-.014 5.8 2.537 5.814 5.723Z" fill="#65B6E7"/><path style="mix-blend-mode:color-dodge" d="M34.586 27.866c.014 3.186-2.538 5.8-5.724 5.814-3.185.014-5.8-2.538-5.814-5.723-.014-3.186 2.538-5.8 5.724-5.814 3.185-.014 5.8 2.537 5.814 5.723Z" fill="url(#c)"/><path d="M17.314 29.573a7.922 7.922 0 0 1-7.875 8.015 7.922 7.922 0 0 1-8.014-7.875A7.922 7.922 0 0 1 9.3 21.698a7.922 7.922 0 0 1 8.014 7.875Z" fill="url(#d)" style="mix-blend-mode:multiply"/><path d="M15.17 28.074c.015 3.185-2.537 5.8-5.723 5.814-3.186.014-5.8-2.538-5.814-5.724-.014-3.186 2.538-5.8 5.724-5.814 3.185-.014 5.8 2.538 5.814 5.724Z" fill="#65B6E7"/><path style="mix-blend-mode:color-dodge" d="M15.17 28.074c.015 3.185-2.537 5.8-5.723 5.814-3.186.014-5.8-2.538-5.814-5.724-.014-3.186 2.538-5.8 5.724-5.814 3.185-.014 5.8 2.538 5.814 5.724Z" fill="url(#e)"/><path d="M17.12 10.43a7.922 7.922 0 0 1-7.874 8.014A7.922 7.922 0 0 1 1.23 10.57a7.922 7.922 0 0 1 7.875-8.014 7.921 7.921 0 0 1 8.015 7.875Z" fill="url(#f)" style="mix-blend-mode:multiply"/><path d="M14.977 8.93c.014 3.186-2.537 5.8-5.723 5.814-3.186.014-5.8-2.538-5.814-5.723-.014-3.186 2.538-5.8 5.723-5.814 3.186-.014 5.8 2.537 5.814 5.723Z" fill="#65B6E7"/><path style="mix-blend-mode:color-dodge" d="M14.977 8.93c.014 3.186-2.537 5.8-5.723 5.814-3.186.014-5.8-2.538-5.814-5.723-.014-3.186 2.538-5.8 5.723-5.814 3.186-.014 5.8 2.537 5.814 5.723Z" fill="url(#g)"/><path d="M36.59 10.291a7.922 7.922 0 0 1-7.875 8.014 7.921 7.921 0 0 1-8.014-7.874 7.921 7.921 0 0 1 7.875-8.015 7.922 7.922 0 0 1 8.014 7.875Z" fill="url(#h)" style="mix-blend-mode:multiply"/><path d="M34.462 8.737c.014 3.186-2.538 5.8-5.724 5.814-3.186.014-5.8-2.537-5.814-5.723-.014-3.186 2.538-5.8 5.724-5.814 3.185-.014 5.8 2.538 5.814 5.723Z" fill="#65B6E7"/><path style="mix-blend-mode:color-dodge" d="M34.462 8.737c.014 3.186-2.538 5.8-5.724 5.814-3.186.014-5.8-2.537-5.814-5.723-.014-3.186 2.538-5.8 5.724-5.814 3.185-.014 5.8 2.538 5.814 5.723Z" fill="url(#i)"/><g clip-path="url(#j)"><path fill="#6FB62C" d="M19 .07v76H0v-76z"/><path d="M6.112 17.321a7.912 7.912 0 1 0 4.27-15.236 7.912 7.912 0 0 0-4.27 15.236Z" fill="url(#k)" style="mix-blend-mode:multiply" opacity=".6"/><path d="M8.213 15.19A5.739 5.739 0 1 0 11.31 4.14 5.739 5.739 0 0 0 8.213 15.19Z" fill="#6FB62C"/><path style="mix-blend-mode:color-dodge" opacity=".7" d="M8.213 15.19A5.739 5.739 0 1 0 11.31 4.14 5.739 5.739 0 0 0 8.213 15.19Z" fill="url(#l)"/><path d="M6.047 36.338a7.912 7.912 0 1 0 4.27-15.237 7.912 7.912 0 0 0-4.27 15.237Z" fill="url(#m)" style="mix-blend-mode:multiply" opacity=".6"/><path d="M9.734 34.536c-3.176-.022-5.753-2.595-5.731-5.772.022-3.176 2.596-5.753 5.772-5.73 3.176.021 5.753 2.595 5.73 5.771-.021 3.177-2.595 5.753-5.771 5.731Z" fill="#6FB62C"/><path style="mix-blend-mode:color-dodge" opacity=".7" d="M9.734 34.536c-3.176-.022-5.753-2.595-5.731-5.772.022-3.176 2.596-5.753 5.772-5.73 3.176.021 5.753 2.595 5.73 5.771-.021 3.177-2.595 5.753-5.771 5.731Z" fill="url(#n)"/><path d="M6.023 55.424a7.912 7.912 0 1 0 4.269-15.237 7.912 7.912 0 0 0-4.27 15.237Z" fill="url(#o)" style="mix-blend-mode:multiply" opacity=".6"/></g><g clip-path="url(#p)"><path fill="#6FB62C" d="M38 .07v76H19v-76z"/><path d="M25.112 17.321a7.912 7.912 0 1 0 4.27-15.236 7.912 7.912 0 0 0-4.27 15.236Z" fill="url(#q)" style="mix-blend-mode:multiply" opacity=".6"/><path d="M27.213 15.19A5.739 5.739 0 1 0 30.31 4.14a5.739 5.739 0 0 0-3.097 11.051Z" fill="#6FB62C"/><path style="mix-blend-mode:color-dodge" opacity=".7" d="M27.213 15.19A5.739 5.739 0 1 0 30.31 4.14a5.739 5.739 0 0 0-3.097 11.051Z" fill="url(#r)"/><path d="M25.047 36.338a7.912 7.912 0 1 0 4.27-15.237 7.912 7.912 0 0 0-4.27 15.237Z" fill="url(#s)" style="mix-blend-mode:multiply" opacity=".6"/><path d="M28.734 34.536c-3.176-.022-5.753-2.595-5.731-5.772.022-3.176 2.596-5.753 5.772-5.73 3.176.021 5.753 2.595 5.73 5.771-.021 3.177-2.595 5.753-5.771 5.731Z" fill="#6FB62C"/><path style="mix-blend-mode:color-dodge" opacity=".7" d="M28.734 34.536c-3.176-.022-5.753-2.595-5.731-5.772.022-3.176 2.596-5.753 5.772-5.73 3.176.021 5.753 2.595 5.73 5.771-.021 3.177-2.595 5.753-5.771 5.731Z" fill="url(#t)"/><path d="M25.023 55.424a7.912 7.912 0 1 0 4.269-15.237 7.912 7.912 0 0 0-4.27 15.237Z" fill="url(#u)" style="mix-blend-mode:multiply" opacity=".6"/></g></g><g clip-path="url(#v)"><path fill="#65B6E7" d="M0 38.07h38v38H0z"/><path d="M36.783 67.38a7.922 7.922 0 0 1-7.875 8.015 7.922 7.922 0 0 1-8.014-7.875 7.921 7.921 0 0 1 7.875-8.014 7.921 7.921 0 0 1 8.014 7.875Z" fill="url(#w)" style="mix-blend-mode:multiply"/><path d="M34.586 65.866c.014 3.186-2.538 5.8-5.724 5.814-3.185.014-5.8-2.538-5.814-5.723-.014-3.186 2.538-5.8 5.724-5.814 3.185-.014 5.8 2.537 5.814 5.723Z" fill="#65B6E7"/><path style="mix-blend-mode:color-dodge" d="M34.586 65.866c.014 3.186-2.538 5.8-5.724 5.814-3.185.014-5.8-2.538-5.814-5.723-.014-3.186 2.538-5.8 5.724-5.814 3.185-.014 5.8 2.537 5.814 5.723Z" fill="url(#x)"/><path d="M17.314 67.573a7.922 7.922 0 0 1-7.875 8.015 7.922 7.922 0 0 1-8.014-7.875A7.922 7.922 0 0 1 9.3 59.699a7.922 7.922 0 0 1 8.014 7.874Z" fill="url(#y)" style="mix-blend-mode:multiply"/><path d="M15.17 66.074c.015 3.185-2.537 5.8-5.723 5.814-3.186.014-5.8-2.538-5.814-5.724-.014-3.186 2.538-5.8 5.724-5.814 3.185-.014 5.8 2.538 5.814 5.724Z" fill="#65B6E7"/><path style="mix-blend-mode:color-dodge" d="M15.17 66.074c.015 3.185-2.537 5.8-5.723 5.814-3.186.014-5.8-2.538-5.814-5.724-.014-3.186 2.538-5.8 5.724-5.814 3.185-.014 5.8 2.538 5.814 5.724Z" fill="url(#z)"/><path d="M17.12 48.43a7.922 7.922 0 0 1-7.874 8.014A7.922 7.922 0 0 1 1.23 48.57a7.922 7.922 0 0 1 7.875-8.014 7.921 7.921 0 0 1 8.015 7.875Z" fill="url(#A)" style="mix-blend-mode:multiply"/><path d="M14.977 46.93c.014 3.186-2.537 5.8-5.723 5.814-3.186.014-5.8-2.538-5.814-5.723-.014-3.186 2.538-5.8 5.723-5.814 3.186-.014 5.8 2.537 5.814 5.723Z" fill="#65B6E7"/><path style="mix-blend-mode:color-dodge" d="M14.977 46.93c.014 3.186-2.537 5.8-5.723 5.814-3.186.014-5.8-2.538-5.814-5.723-.014-3.186 2.538-5.8 5.723-5.814 3.186-.014 5.8 2.537 5.814 5.723Z" fill="url(#B)"/><path d="M36.59 48.291a7.922 7.922 0 0 1-7.875 8.015 7.921 7.921 0 0 1-8.014-7.875 7.922 7.922 0 0 1 7.875-8.015 7.922 7.922 0 0 1 8.014 7.875Z" fill="url(#C)" style="mix-blend-mode:multiply"/><path d="M34.462 46.737c.014 3.186-2.538 5.8-5.724 5.814-3.186.014-5.8-2.538-5.814-5.723-.014-3.186 2.538-5.8 5.724-5.814 3.185-.014 5.8 2.537 5.814 5.723Z" fill="#65B6E7"/><path style="mix-blend-mode:color-dodge" d="M34.462 46.737c.014 3.186-2.538 5.8-5.724 5.814-3.186.014-5.8-2.538-5.814-5.723-.014-3.186 2.538-5.8 5.724-5.814 3.185-.014 5.8 2.537 5.814 5.723Z" fill="url(#D)"/><g clip-path="url(#E)"><path fill="#6FB62C" d="M19 38.07v76H0v-76z"/><path d="M6.112 55.321a7.912 7.912 0 1 0 4.27-15.236 7.912 7.912 0 0 0-4.27 15.236Z" fill="url(#F)" style="mix-blend-mode:multiply" opacity=".6"/><path d="M8.213 53.19A5.739 5.739 0 1 0 11.31 42.14 5.739 5.739 0 0 0 8.213 53.19Z" fill="#6FB62C"/><path style="mix-blend-mode:color-dodge" opacity=".7" d="M8.213 53.19A5.739 5.739 0 1 0 11.31 42.14 5.739 5.739 0 0 0 8.213 53.19Z" fill="url(#G)"/><path d="M6.047 74.338a7.912 7.912 0 1 0 4.27-15.237 7.912 7.912 0 0 0-4.27 15.237Z" fill="url(#H)" style="mix-blend-mode:multiply" opacity=".6"/><path d="M9.734 72.536c-3.176-.022-5.753-2.595-5.731-5.772.022-3.176 2.596-5.753 5.772-5.73 3.176.022 5.753 2.595 5.73 5.771-.021 3.176-2.595 5.753-5.771 5.731Z" fill="#6FB62C"/><path style="mix-blend-mode:color-dodge" opacity=".7" d="M9.734 72.536c-3.176-.022-5.753-2.595-5.731-5.772.022-3.176 2.596-5.753 5.772-5.73 3.176.022 5.753 2.595 5.73 5.771-.021 3.176-2.595 5.753-5.771 5.731Z" fill="url(#I)"/><path d="M6.023 93.424a7.912 7.912 0 1 0 4.269-15.237 7.912 7.912 0 0 0-4.27 15.237Z" fill="url(#J)" style="mix-blend-mode:multiply" opacity=".6"/></g><g clip-path="url(#K)"><path fill="#6FB62C" d="M38 38.07v76H19v-76z"/><path d="M25.112 55.321a7.912 7.912 0 1 0 4.27-15.236 7.912 7.912 0 0 0-4.27 15.236Z" fill="url(#L)" style="mix-blend-mode:multiply" opacity=".6"/><path d="M27.213 53.19A5.739 5.739 0 1 0 30.31 42.14a5.739 5.739 0 0 0-3.097 11.051Z" fill="#6FB62C"/><path style="mix-blend-mode:color-dodge" opacity=".7" d="M27.213 53.19A5.739 5.739 0 1 0 30.31 42.14a5.739 5.739 0 0 0-3.097 11.051Z" fill="url(#M)"/><path d="M25.047 74.338a7.912 7.912 0 1 0 4.27-15.237 7.912 7.912 0 0 0-4.27 15.237Z" fill="url(#N)" style="mix-blend-mode:multiply" opacity=".6"/><path d="M28.734 72.536c-3.176-.022-5.753-2.595-5.731-5.772.022-3.176 2.596-5.753 5.772-5.73 3.176.022 5.753 2.595 5.73 5.771-.021 3.176-2.595 5.753-5.771 5.731Z" fill="#6FB62C"/><path style="mix-blend-mode:color-dodge" opacity=".7" d="M28.734 72.536c-3.176-.022-5.753-2.595-5.731-5.772.022-3.176 2.596-5.753 5.772-5.73 3.176.022 5.753 2.595 5.73 5.771-.021 3.176-2.595 5.753-5.771 5.731Z" fill="url(#O)"/><path d="M25.023 93.424a7.912 7.912 0 1 0 4.269-15.237 7.912 7.912 0 0 0-4.27 15.237Z" fill="url(#P)" style="mix-blend-mode:multiply" opacity=".6"/></g></g><g clip-path="url(#Q)"><path fill="#65B6E7" d="M0 57.07h38v38H0z"/><path d="M36.783 86.38a7.922 7.922 0 0 1-7.875 8.015 7.922 7.922 0 0 1-8.014-7.875 7.921 7.921 0 0 1 7.875-8.014 7.921 7.921 0 0 1 8.014 7.875Z" fill="url(#R)" style="mix-blend-mode:multiply"/><path d="M34.586 84.866c.014 3.186-2.538 5.8-5.724 5.814-3.185.014-5.8-2.538-5.814-5.723-.014-3.186 2.538-5.8 5.724-5.814 3.185-.014 5.8 2.537 5.814 5.723Z" fill="#65B6E7"/><path style="mix-blend-mode:color-dodge" d="M34.586 84.866c.014 3.186-2.538 5.8-5.724 5.814-3.185.014-5.8-2.538-5.814-5.723-.014-3.186 2.538-5.8 5.724-5.814 3.185-.014 5.8 2.537 5.814 5.723Z" fill="url(#S)"/><path d="M17.314 86.573a7.922 7.922 0 0 1-7.875 8.015 7.922 7.922 0 0 1-8.014-7.875A7.922 7.922 0 0 1 9.3 78.699a7.922 7.922 0 0 1 8.014 7.874Z" fill="url(#T)" style="mix-blend-mode:multiply"/><path d="M15.17 85.074c.015 3.185-2.537 5.8-5.723 5.814-3.186.014-5.8-2.538-5.814-5.724-.014-3.186 2.538-5.8 5.724-5.814 3.185-.014 5.8 2.538 5.814 5.724Z" fill="#65B6E7"/><path style="mix-blend-mode:color-dodge" d="M15.17 85.074c.015 3.185-2.537 5.8-5.723 5.814-3.186.014-5.8-2.538-5.814-5.724-.014-3.186 2.538-5.8 5.724-5.814 3.185-.014 5.8 2.538 5.814 5.724Z" fill="url(#U)"/><path d="M17.12 67.43a7.922 7.922 0 0 1-7.874 8.014A7.922 7.922 0 0 1 1.23 67.57a7.922 7.922 0 0 1 7.875-8.014 7.921 7.921 0 0 1 8.015 7.875Z" fill="url(#V)" style="mix-blend-mode:multiply"/><path d="M14.977 65.93c.014 3.186-2.537 5.8-5.723 5.814-3.186.014-5.8-2.538-5.814-5.723-.014-3.186 2.538-5.8 5.723-5.814 3.186-.014 5.8 2.537 5.814 5.723Z" fill="#65B6E7"/><path style="mix-blend-mode:color-dodge" d="M14.977 65.93c.014 3.186-2.537 5.8-5.723 5.814-3.186.014-5.8-2.538-5.814-5.723-.014-3.186 2.538-5.8 5.723-5.814 3.186-.014 5.8 2.537 5.814 5.723Z" fill="url(#W)"/><path d="M36.59 67.291a7.922 7.922 0 0 1-7.875 8.014 7.921 7.921 0 0 1-8.014-7.875 7.922 7.922 0 0 1 7.875-8.014 7.922 7.922 0 0 1 8.014 7.875Z" fill="url(#X)" style="mix-blend-mode:multiply"/><path d="M34.462 65.737c.014 3.186-2.538 5.8-5.724 5.814-3.186.014-5.8-2.538-5.814-5.723-.014-3.186 2.538-5.8 5.724-5.814 3.185-.014 5.8 2.537 5.814 5.723Z" fill="#65B6E7"/><path style="mix-blend-mode:color-dodge" d="M34.462 65.737c.014 3.186-2.538 5.8-5.724 5.814-3.186.014-5.8-2.538-5.814-5.723-.014-3.186 2.538-5.8 5.724-5.814 3.185-.014 5.8 2.537 5.814 5.723Z" fill="url(#Y)"/><g clip-path="url(#Z)"><path fill="#6FB62C" d="M19 57.07v76H0v-76z"/><path d="M6.112 74.321a7.912 7.912 0 1 0 4.27-15.236 7.912 7.912 0 0 0-4.27 15.236Z" fill="url(#aa)" style="mix-blend-mode:multiply" opacity=".6"/><path d="M8.213 72.19A5.739 5.739 0 1 0 11.31 61.14 5.739 5.739 0 0 0 8.213 72.19Z" fill="#6FB62C"/><path style="mix-blend-mode:color-dodge" opacity=".7" d="M8.213 72.19A5.739 5.739 0 1 0 11.31 61.14 5.739 5.739 0 0 0 8.213 72.19Z" fill="url(#ab)"/><path d="M6.047 93.338a7.912 7.912 0 1 0 4.27-15.237 7.912 7.912 0 0 0-4.27 15.237Z" fill="url(#ac)" style="mix-blend-mode:multiply" opacity=".6"/><path d="M9.734 91.536c-3.176-.022-5.753-2.595-5.731-5.772.022-3.176 2.596-5.753 5.772-5.73 3.176.021 5.753 2.595 5.73 5.771-.021 3.176-2.595 5.753-5.771 5.731Z" fill="#6FB62C"/><path style="mix-blend-mode:color-dodge" opacity=".7" d="M9.734 91.536c-3.176-.022-5.753-2.595-5.731-5.772.022-3.176 2.596-5.753 5.772-5.73 3.176.021 5.753 2.595 5.73 5.771-.021 3.176-2.595 5.753-5.771 5.731Z" fill="url(#ad)"/><path d="M6.023 112.424a7.911 7.911 0 0 0 9.752-5.484 7.911 7.911 0 1 0-9.752 5.484Z" fill="url(#ae)" style="mix-blend-mode:multiply" opacity=".6"/></g><g clip-path="url(#af)"><path fill="#6FB62C" d="M38 57.07v76H19v-76z"/><path d="M25.112 74.321a7.912 7.912 0 1 0 4.27-15.236 7.912 7.912 0 0 0-4.27 15.236Z" fill="url(#ag)" style="mix-blend-mode:multiply" opacity=".6"/><path d="M27.213 72.19A5.739 5.739 0 1 0 30.31 61.14a5.739 5.739 0 0 0-3.097 11.051Z" fill="#6FB62C"/><path style="mix-blend-mode:color-dodge" opacity=".7" d="M27.213 72.19A5.739 5.739 0 1 0 30.31 61.14a5.739 5.739 0 0 0-3.097 11.051Z" fill="url(#ah)"/><path d="M25.047 93.338a7.912 7.912 0 1 0 4.27-15.237 7.912 7.912 0 0 0-4.27 15.237Z" fill="url(#ai)" style="mix-blend-mode:multiply" opacity=".6"/><path d="M28.734 91.536c-3.176-.022-5.753-2.595-5.731-5.772.022-3.176 2.596-5.753 5.772-5.73 3.176.021 5.753 2.595 5.73 5.771-.021 3.176-2.595 5.753-5.771 5.731Z" fill="#6FB62C"/><path style="mix-blend-mode:color-dodge" opacity=".7" d="M28.734 91.536c-3.176-.022-5.753-2.595-5.731-5.772.022-3.176 2.596-5.753 5.772-5.73 3.176.021 5.753 2.595 5.73 5.771-.021 3.176-2.595 5.753-5.771 5.731Z" fill="url(#aj)"/><path d="M25.023 112.424a7.911 7.911 0 0 0 9.752-5.484 7.911 7.911 0 1 0-9.752 5.484Z" fill="url(#ak)" style="mix-blend-mode:multiply" opacity=".6"/></g></g><defs><radialGradient id="b" cx="0" cy="0" r="1" gradientUnits="userSpaceOnUse" gradientTransform="rotate(-.6 2809.06 -2701.793) scale(7.93526)"><stop offset=".7" stop-color="#99CFEF"/><stop offset=".8" stop-color="#C5E3F6"/><stop offset=".9" stop-color="#E4F2FA"/><stop offset="1" stop-color="#fff"/></radialGradient><radialGradient id="c" cx="0" cy="0" r="1" gradientUnits="userSpaceOnUse" gradientTransform="rotate(-.6 2712.22 -2695.226) scale(7.93527 7.93528)"><stop offset=".6" stop-color="#010101"/><stop offset=".7" stop-color="#262626"/><stop offset=".8" stop-color="#535353"/><stop offset="1" stop-color="#A3A3A3"/></radialGradient><radialGradient id="d" cx="0" cy="0" r="1" gradientUnits="userSpaceOnUse" gradientTransform="rotate(-.6 2818.465 -844.612) scale(7.93526)"><stop offset=".7" stop-color="#99CFEF"/><stop offset=".8" stop-color="#C5E3F6"/><stop offset=".9" stop-color="#E4F2FA"/><stop offset="1" stop-color="#fff"/></radialGradient><radialGradient id="e" cx="0" cy="0" r="1" gradientUnits="userSpaceOnUse" gradientTransform="matrix(7.93486 -.08306 .08306 7.93485 8.927 28.445)"><stop offset=".6" stop-color="#010101"/><stop offset=".7" stop-color="#262626"/><stop offset=".8" stop-color="#535353"/><stop offset="1" stop-color="#A3A3A3"/></radialGradient><radialGradient id="f" cx="0" cy="0" r="1" gradientUnits="userSpaceOnUse" gradientTransform="rotate(-.6 987.034 -835.026) scale(7.93527 7.93526)"><stop offset=".7" stop-color="#99CFEF"/><stop offset=".8" stop-color="#C5E3F6"/><stop offset=".9" stop-color="#E4F2FA"/><stop offset="1" stop-color="#fff"/></radialGradient><radialGradient id="g" cx="0" cy="0" r="1" gradientUnits="userSpaceOnUse" gradientTransform="matrix(7.93486 -.08306 .08306 7.93485 8.726 9.279)"><stop offset=".6" stop-color="#010101"/><stop offset=".7" stop-color="#262626"/><stop offset=".8" stop-color="#535353"/><stop offset="1" stop-color="#A3A3A3"/></radialGradient><radialGradient id="h" cx="0" cy="0" r="1" gradientUnits="userSpaceOnUse" gradientTransform="rotate(-.6 977.673 -2693.778) scale(7.93527 7.93526)"><stop offset=".7" stop-color="#99CFEF"/><stop offset=".8" stop-color="#C5E3F6"/><stop offset=".9" stop-color="#E4F2FA"/><stop offset="1" stop-color="#fff"/></radialGradient><radialGradient id="i" cx="0" cy="0" r="1" gradientUnits="userSpaceOnUse" gradientTransform="matrix(7.93486 -.08306 .08306 7.93485 28.178 9.079)"><stop offset=".6" stop-color="#010101"/><stop offset=".7" stop-color="#262626"/><stop offset=".8" stop-color="#535353"/><stop offset="1" stop-color="#A3A3A3"/></radialGradient><radialGradient id="k" cx="0" cy="0" r="1" gradientUnits="userSpaceOnUse" gradientTransform="matrix(-.00742 7.91155 -7.91154 -.00742 8.042 10.323)"><stop offset=".7" stop-color="#61B675"/><stop offset=".8" stop-color="#99D0A6"/><stop offset=".9" stop-color="#E4F2E8"/><stop offset="1" stop-color="#fff"/></radialGradient><radialGradient id="l" cx="0" cy="0" r="1" gradientUnits="userSpaceOnUse" gradientTransform="matrix(-.00742 7.91155 -7.91154 -.00742 8.988 10.268)"><stop offset=".6" stop-color="#0B0B0B"/><stop offset=".7" stop-color="#262626"/><stop offset=".8" stop-color="#535353"/><stop offset=".9" stop-color="#929292"/><stop offset="1" stop-color="#fff"/></radialGradient><radialGradient id="m" cx="0" cy="0" r="1" gradientUnits="userSpaceOnUse" gradientTransform="rotate(90.054 -10.663 18.695) scale(7.91155 7.91156)"><stop offset=".7" stop-color="#61B675"/><stop offset=".8" stop-color="#99D0A6"/><stop offset=".9" stop-color="#E4F2E8"/><stop offset="1" stop-color="#fff"/></radialGradient><radialGradient id="n" cx="0" cy="0" r="1" gradientUnits="userSpaceOnUse" gradientTransform="rotate(90.054 -10.162 19.14) scale(7.91155 7.91156)"><stop offset=".6" stop-color="#0B0B0B"/><stop offset=".7" stop-color="#262626"/><stop offset=".8" stop-color="#535353"/><stop offset=".9" stop-color="#929292"/><stop offset="1" stop-color="#fff"/></radialGradient><radialGradient id="o" cx="0" cy="0" r="1" gradientUnits="userSpaceOnUse" gradientTransform="matrix(-.00742 7.91155 -7.91154 -.00742 8.005 48.429)"><stop offset=".7" stop-color="#61B675"/><stop offset=".8" stop-color="#99D0A6"/><stop offset=".9" stop-color="#E4F2E8"/><stop offset="1" stop-color="#fff"/></radialGradient><radialGradient id="q" cx="0" cy="0" r="1" gradientUnits="userSpaceOnUse" gradientTransform="matrix(-.00742 7.91155 -7.91154 -.00742 27.042 10.323)"><stop offset=".7" stop-color="#61B675"/><stop offset=".8" stop-color="#99D0A6"/><stop offset=".9" stop-color="#E4F2E8"/><stop offset="1" stop-color="#fff"/></radialGradient><radialGradient id="r" cx="0" cy="0" r="1" gradientUnits="userSpaceOnUse" gradientTransform="matrix(-.00742 7.91155 -7.91154 -.00742 27.988 10.268)"><stop offset=".6" stop-color="#0B0B0B"/><stop offset=".7" stop-color="#262626"/><stop offset=".8" stop-color="#535353"/><stop offset=".9" stop-color="#929292"/><stop offset="1" stop-color="#fff"/></radialGradient><radialGradient id="s" cx="0" cy="0" r="1" gradientUnits="userSpaceOnUse" gradientTransform="rotate(90.054 -1.163 28.186) scale(7.91155 7.91156)"><stop offset=".7" stop-color="#61B675"/><stop offset=".8" stop-color="#99D0A6"/><stop offset=".9" stop-color="#E4F2E8"/><stop offset="1" stop-color="#fff"/></radialGradient><radialGradient id="t" cx="0" cy="0" r="1" gradientUnits="userSpaceOnUse" gradientTransform="rotate(90.054 -.662 28.632) scale(7.91155 7.91156)"><stop offset=".6" stop-color="#0B0B0B"/><stop offset=".7" stop-color="#262626"/><stop offset=".8" stop-color="#535353"/><stop offset=".9" stop-color="#929292"/><stop offset="1" stop-color="#fff"/></radialGradient><radialGradient id="u" cx="0" cy="0" r="1" gradientUnits="userSpaceOnUse" gradientTransform="matrix(-.00742 7.91155 -7.91154 -.00742 27.005 48.429)"><stop offset=".7" stop-color="#61B675"/><stop offset=".8" stop-color="#99D0A6"/><stop offset=".9" stop-color="#E4F2E8"/><stop offset="1" stop-color="#fff"/></radialGradient><radialGradient id="w" cx="0" cy="0" r="1" gradientUnits="userSpaceOnUse" gradientTransform="rotate(-.6 6439.92 -2682.793) scale(7.93526)"><stop offset=".7" stop-color="#99CFEF"/><stop offset=".8" stop-color="#C5E3F6"/><stop offset=".9" stop-color="#E4F2FA"/><stop offset="1" stop-color="#fff"/></radialGradient><radialGradient id="x" cx="0" cy="0" r="1" gradientUnits="userSpaceOnUse" gradientTransform="matrix(7.93484 -.08307 .08307 7.93485 28.364 66.245)"><stop offset=".6" stop-color="#010101"/><stop offset=".7" stop-color="#262626"/><stop offset=".8" stop-color="#535353"/><stop offset="1" stop-color="#A3A3A3"/></radialGradient><radialGradient id="y" cx="0" cy="0" r="1" gradientUnits="userSpaceOnUse" gradientTransform="rotate(-.6 6449.356 -825.612) scale(7.93526)"><stop offset=".7" stop-color="#99CFEF"/><stop offset=".8" stop-color="#C5E3F6"/><stop offset=".9" stop-color="#E4F2FA"/><stop offset="1" stop-color="#fff"/></radialGradient><radialGradient id="z" cx="0" cy="0" r="1" gradientUnits="userSpaceOnUse" gradientTransform="matrix(7.93486 -.08306 .08306 7.93485 8.927 66.445)"><stop offset=".6" stop-color="#010101"/><stop offset=".7" stop-color="#262626"/><stop offset=".8" stop-color="#535353"/><stop offset="1" stop-color="#A3A3A3"/></radialGradient><radialGradient id="A" cx="0" cy="0" r="1" gradientUnits="userSpaceOnUse" gradientTransform="matrix(7.93484 -.08304 .08304 7.93483 8.793 48.284)"><stop offset=".7" stop-color="#99CFEF"/><stop offset=".8" stop-color="#C5E3F6"/><stop offset=".9" stop-color="#E4F2FA"/><stop offset="1" stop-color="#fff"/></radialGradient><radialGradient id="B" cx="0" cy="0" r="1" gradientUnits="userSpaceOnUse" gradientTransform="rotate(-.6 4520.82 -809.968) scale(7.93529 7.93528)"><stop offset=".6" stop-color="#010101"/><stop offset=".7" stop-color="#262626"/><stop offset=".8" stop-color="#535353"/><stop offset="1" stop-color="#A3A3A3"/></radialGradient><radialGradient id="C" cx="0" cy="0" r="1" gradientUnits="userSpaceOnUse" gradientTransform="matrix(7.93484 -.08304 .08304 7.93483 28.244 48.084)"><stop offset=".7" stop-color="#99CFEF"/><stop offset=".8" stop-color="#C5E3F6"/><stop offset=".9" stop-color="#E4F2FA"/><stop offset="1" stop-color="#fff"/></radialGradient><radialGradient id="D" cx="0" cy="0" r="1" gradientUnits="userSpaceOnUse" gradientTransform="rotate(-.6 4511.48 -2668.273) scale(7.93529 7.93528)"><stop offset=".6" stop-color="#010101"/><stop offset=".7" stop-color="#262626"/><stop offset=".8" stop-color="#535353"/><stop offset="1" stop-color="#A3A3A3"/></radialGradient><radialGradient id="F" cx="0" cy="0" r="1" gradientUnits="userSpaceOnUse" gradientTransform="matrix(-.00742 7.91155 -7.91154 -.00742 8.042 48.323)"><stop offset=".7" stop-color="#61B675"/><stop offset=".8" stop-color="#99D0A6"/><stop offset=".9" stop-color="#E4F2E8"/><stop offset="1" stop-color="#fff"/></radialGradient><radialGradient id="G" cx="0" cy="0" r="1" gradientUnits="userSpaceOnUse" gradientTransform="matrix(-.00742 7.91155 -7.91154 -.00742 8.988 48.268)"><stop offset=".6" stop-color="#0B0B0B"/><stop offset=".7" stop-color="#262626"/><stop offset=".8" stop-color="#535353"/><stop offset=".9" stop-color="#929292"/><stop offset="1" stop-color="#fff"/></radialGradient><radialGradient id="H" cx="0" cy="0" r="1" gradientUnits="userSpaceOnUse" gradientTransform="rotate(90.054 -29.645 37.695) scale(7.91155 7.91156)"><stop offset=".7" stop-color="#61B675"/><stop offset=".8" stop-color="#99D0A6"/><stop offset=".9" stop-color="#E4F2E8"/><stop offset="1" stop-color="#fff"/></radialGradient><radialGradient id="I" cx="0" cy="0" r="1" gradientUnits="userSpaceOnUse" gradientTransform="rotate(90.054 -29.144 38.14) scale(7.91155 7.91156)"><stop offset=".6" stop-color="#0B0B0B"/><stop offset=".7" stop-color="#262626"/><stop offset=".8" stop-color="#535353"/><stop offset=".9" stop-color="#929292"/><stop offset="1" stop-color="#fff"/></radialGradient><radialGradient id="J" cx="0" cy="0" r="1" gradientUnits="userSpaceOnUse" gradientTransform="matrix(-.00742 7.91155 -7.91154 -.00742 8.005 86.429)"><stop offset=".7" stop-color="#61B675"/><stop offset=".8" stop-color="#99D0A6"/><stop offset=".9" stop-color="#E4F2E8"/><stop offset="1" stop-color="#fff"/></radialGradient><radialGradient id="L" cx="0" cy="0" r="1" gradientUnits="userSpaceOnUse" gradientTransform="matrix(-.00742 7.91155 -7.91154 -.00742 27.042 48.323)"><stop offset=".7" stop-color="#61B675"/><stop offset=".8" stop-color="#99D0A6"/><stop offset=".9" stop-color="#E4F2E8"/><stop offset="1" stop-color="#fff"/></radialGradient><radialGradient id="M" cx="0" cy="0" r="1" gradientUnits="userSpaceOnUse" gradientTransform="matrix(-.00742 7.91155 -7.91154 -.00742 27.988 48.268)"><stop offset=".6" stop-color="#0B0B0B"/><stop offset=".7" stop-color="#262626"/><stop offset=".8" stop-color="#535353"/><stop offset=".9" stop-color="#929292"/><stop offset="1" stop-color="#fff"/></radialGradient><radialGradient id="N" cx="0" cy="0" r="1" gradientUnits="userSpaceOnUse" gradientTransform="rotate(90.054 -20.145 47.186) scale(7.91155 7.91156)"><stop offset=".7" stop-color="#61B675"/><stop offset=".8" stop-color="#99D0A6"/><stop offset=".9" stop-color="#E4F2E8"/><stop offset="1" stop-color="#fff"/></radialGradient><radialGradient id="O" cx="0" cy="0" r="1" gradientUnits="userSpaceOnUse" gradientTransform="rotate(90.054 -19.644 47.632) scale(7.91155 7.91156)"><stop offset=".6" stop-color="#0B0B0B"/><stop offset=".7" stop-color="#262626"/><stop offset=".8" stop-color="#535353"/><stop offset=".9" stop-color="#929292"/><stop offset="1" stop-color="#fff"/></radialGradient><radialGradient id="P" cx="0" cy="0" r="1" gradientUnits="userSpaceOnUse" gradientTransform="matrix(-.00742 7.91155 -7.91154 -.00742 27.005 86.429)"><stop offset=".7" stop-color="#61B675"/><stop offset=".8" stop-color="#99D0A6"/><stop offset=".9" stop-color="#E4F2E8"/><stop offset="1" stop-color="#fff"/></radialGradient><radialGradient id="R" cx="0" cy="0" r="1" gradientUnits="userSpaceOnUse" gradientTransform="rotate(-.6 8255.35 -2673.293) scale(7.93526)"><stop offset=".7" stop-color="#99CFEF"/><stop offset=".8" stop-color="#C5E3F6"/><stop offset=".9" stop-color="#E4F2FA"/><stop offset="1" stop-color="#fff"/></radialGradient><radialGradient id="S" cx="0" cy="0" r="1" gradientUnits="userSpaceOnUse" gradientTransform="matrix(7.93484 -.08307 .08307 7.93485 28.364 85.245)"><stop offset=".6" stop-color="#010101"/><stop offset=".7" stop-color="#262626"/><stop offset=".8" stop-color="#535353"/><stop offset="1" stop-color="#A3A3A3"/></radialGradient><radialGradient id="T" cx="0" cy="0" r="1" gradientUnits="userSpaceOnUse" gradientTransform="rotate(-.6 8264.8 -816.112) scale(7.93526)"><stop offset=".7" stop-color="#99CFEF"/><stop offset=".8" stop-color="#C5E3F6"/><stop offset=".9" stop-color="#E4F2FA"/><stop offset="1" stop-color="#fff"/></radialGradient><radialGradient id="U" cx="0" cy="0" r="1" gradientUnits="userSpaceOnUse" gradientTransform="rotate(-.6 8166.93 -810.087) scale(7.93529 7.93528)"><stop offset=".6" stop-color="#010101"/><stop offset=".7" stop-color="#262626"/><stop offset=".8" stop-color="#535353"/><stop offset="1" stop-color="#A3A3A3"/></radialGradient><radialGradient id="V" cx="0" cy="0" r="1" gradientUnits="userSpaceOnUse" gradientTransform="matrix(7.93484 -.08304 .08304 7.93483 8.793 67.284)"><stop offset=".7" stop-color="#99CFEF"/><stop offset=".8" stop-color="#C5E3F6"/><stop offset=".9" stop-color="#E4F2FA"/><stop offset="1" stop-color="#fff"/></radialGradient><radialGradient id="W" cx="0" cy="0" r="1" gradientUnits="userSpaceOnUse" gradientTransform="matrix(7.93486 -.08306 .08306 7.93485 8.726 66.279)"><stop offset=".6" stop-color="#010101"/><stop offset=".7" stop-color="#262626"/><stop offset=".8" stop-color="#535353"/><stop offset="1" stop-color="#A3A3A3"/></radialGradient><radialGradient id="X" cx="0" cy="0" r="1" gradientUnits="userSpaceOnUse" gradientTransform="matrix(7.93484 -.08304 .08304 7.93483 28.244 67.084)"><stop offset=".7" stop-color="#99CFEF"/><stop offset=".8" stop-color="#C5E3F6"/><stop offset=".9" stop-color="#E4F2FA"/><stop offset="1" stop-color="#fff"/></radialGradient><radialGradient id="Y" cx="0" cy="0" r="1" gradientUnits="userSpaceOnUse" gradientTransform="matrix(7.93486 -.08306 .08306 7.93485 28.178 66.079)"><stop offset=".6" stop-color="#010101"/><stop offset=".7" stop-color="#262626"/><stop offset=".8" stop-color="#535353"/><stop offset="1" stop-color="#A3A3A3"/></radialGradient><radialGradient id="aa" cx="0" cy="0" r="1" gradientUnits="userSpaceOnUse" gradientTransform="matrix(-.00742 7.91155 -7.91154 -.00742 8.042 67.323)"><stop offset=".7" stop-color="#61B675"/><stop offset=".8" stop-color="#99D0A6"/><stop offset=".9" stop-color="#E4F2E8"/><stop offset="1" stop-color="#fff"/></radialGradient><radialGradient id="ab" cx="0" cy="0" r="1" gradientUnits="userSpaceOnUse" gradientTransform="matrix(-.00742 7.91155 -7.91154 -.00742 8.988 67.268)"><stop offset=".6" stop-color="#0B0B0B"/><stop offset=".7" stop-color="#262626"/><stop offset=".8" stop-color="#535353"/><stop offset=".9" stop-color="#929292"/><stop offset="1" stop-color="#fff"/></radialGradient><radialGradient id="ac" cx="0" cy="0" r="1" gradientUnits="userSpaceOnUse" gradientTransform="rotate(90.054 -39.136 47.195) scale(7.91155 7.91156)"><stop offset=".7" stop-color="#61B675"/><stop offset=".8" stop-color="#99D0A6"/><stop offset=".9" stop-color="#E4F2E8"/><stop offset="1" stop-color="#fff"/></radialGradient><radialGradient id="ad" cx="0" cy="0" r="1" gradientUnits="userSpaceOnUse" gradientTransform="rotate(90.054 -38.636 47.64) scale(7.91155 7.91156)"><stop offset=".6" stop-color="#0B0B0B"/><stop offset=".7" stop-color="#262626"/><stop offset=".8" stop-color="#535353"/><stop offset=".9" stop-color="#929292"/><stop offset="1" stop-color="#fff"/></radialGradient><radialGradient id="ae" cx="0" cy="0" r="1" gradientUnits="userSpaceOnUse" gradientTransform="matrix(-.00742 7.91155 -7.91154 -.00742 8.005 105.429)"><stop offset=".7" stop-color="#61B675"/><stop offset=".8" stop-color="#99D0A6"/><stop offset=".9" stop-color="#E4F2E8"/><stop offset="1" stop-color="#fff"/></radialGradient><radialGradient id="ag" cx="0" cy="0" r="1" gradientUnits="userSpaceOnUse" gradientTransform="matrix(-.00742 7.91155 -7.91154 -.00742 27.042 67.323)"><stop offset=".7" stop-color="#61B675"/><stop offset=".8" stop-color="#99D0A6"/><stop offset=".9" stop-color="#E4F2E8"/><stop offset="1" stop-color="#fff"/></radialGradient><radialGradient id="ah" cx="0" cy="0" r="1" gradientUnits="userSpaceOnUse" gradientTransform="matrix(-.00742 7.91155 -7.91154 -.00742 27.988 67.268)"><stop offset=".6" stop-color="#0B0B0B"/><stop offset=".7" stop-color="#262626"/><stop offset=".8" stop-color="#535353"/><stop offset=".9" stop-color="#929292"/><stop offset="1" stop-color="#fff"/></radialGradient><radialGradient id="ai" cx="0" cy="0" r="1" gradientUnits="userSpaceOnUse" gradientTransform="rotate(90.054 -29.636 56.686) scale(7.91155 7.91156)"><stop offset=".7" stop-color="#61B675"/><stop offset=".8" stop-color="#99D0A6"/><stop offset=".9" stop-color="#E4F2E8"/><stop offset="1" stop-color="#fff"/></radialGradient><radialGradient id="aj" cx="0" cy="0" r="1" gradientUnits="userSpaceOnUse" gradientTransform="rotate(90.054 -29.136 57.132) scale(7.91155 7.91156)"><stop offset=".6" stop-color="#0B0B0B"/><stop offset=".7" stop-color="#262626"/><stop offset=".8" stop-color="#535353"/><stop offset=".9" stop-color="#929292"/><stop offset="1" stop-color="#fff"/></radialGradient><radialGradient id="ak" cx="0" cy="0" r="1" gradientUnits="userSpaceOnUse" gradientTransform="matrix(-.00742 7.91155 -7.91154 -.00742 27.005 105.429)"><stop offset=".7" stop-color="#61B675"/><stop offset=".8" stop-color="#99D0A6"/><stop offset=".9" stop-color="#E4F2E8"/><stop offset="1" stop-color="#fff"/></radialGradient><clipPath id="a"><path fill="#fff" transform="translate(0 .07)" d="M0 0h38v38H0z"/></clipPath><clipPath id="j"><path fill="#fff" transform="rotate(90 9.465 9.535)" d="M0 0h76v19H0z"/></clipPath><clipPath id="p"><path fill="#fff" transform="matrix(0 1 -1 0 38 .07)" d="M0 0h76v19H0z"/></clipPath><clipPath id="v"><path fill="#fff" transform="translate(0 38.07)" d="M0 0h38v38H0z"/></clipPath><clipPath id="E"><path fill="#fff" transform="rotate(90 -9.535 28.535)" d="M0 0h76v19H0z"/></clipPath><clipPath id="K"><path fill="#fff" transform="rotate(90 -.035 38.035)" d="M0 0h76v19H0z"/></clipPath><clipPath id="Q"><path fill="#fff" transform="translate(0 57.07)" d="M0 0h38v38H0z"/></clipPath><clipPath id="Z"><path fill="#fff" transform="rotate(90 -19.035 38.035)" d="M0 0h76v19H0z"/></clipPath><clipPath id="af"><path fill="#fff" transform="rotate(90 -9.535 47.535)" d="M0 0h76v19H0z"/></clipPath></defs></svg>